<mxfile host="app.diagrams.net" modified="2022-12-27T17:00:46.981Z" agent="5.0 (Windows NT 10.0; Win64; x64) AppleWebKit/537.36 (KHTML, like Gecko) Chrome/108.0.0.0 Safari/537.36" etag="FvcqdeCWDqyczDQPBWBL" version="20.7.4" type="github">
  <diagram id="SLF_xLfMb_dm_BqYsQD-" name="Page-1">
    <mxGraphModel dx="1434" dy="833" grid="1" gridSize="10" guides="1" tooltips="1" connect="1" arrows="1" fold="1" page="1" pageScale="1" pageWidth="827" pageHeight="1169" math="0" shadow="0">
      <root>
        <mxCell id="0" />
        <mxCell id="1" parent="0" />
        <mxCell id="IoRThD0YpW3yYK1RBAOI-8" style="edgeStyle=orthogonalEdgeStyle;rounded=0;orthogonalLoop=1;jettySize=auto;html=1;exitX=0.5;exitY=0;exitDx=0;exitDy=0;entryX=0.5;entryY=0;entryDx=0;entryDy=0;" parent="1" source="IoRThD0YpW3yYK1RBAOI-1" target="IoRThD0YpW3yYK1RBAOI-3" edge="1">
          <mxGeometry relative="1" as="geometry" />
        </mxCell>
        <mxCell id="IoRThD0YpW3yYK1RBAOI-1" value="Rubber Tree" style="rounded=0;whiteSpace=wrap;html=1;" parent="1" vertex="1">
          <mxGeometry x="40" y="80" width="120" height="60" as="geometry" />
        </mxCell>
        <mxCell id="IoRThD0YpW3yYK1RBAOI-11" style="edgeStyle=orthogonalEdgeStyle;rounded=0;orthogonalLoop=1;jettySize=auto;html=1;exitX=1;exitY=0.5;exitDx=0;exitDy=0;entryX=0.5;entryY=1;entryDx=0;entryDy=0;" parent="1" source="IoRThD0YpW3yYK1RBAOI-3" edge="1">
          <mxGeometry relative="1" as="geometry">
            <mxPoint x="400" y="80" as="targetPoint" />
          </mxGeometry>
        </mxCell>
        <mxCell id="IoRThD0YpW3yYK1RBAOI-55" style="edgeStyle=orthogonalEdgeStyle;rounded=0;orthogonalLoop=1;jettySize=auto;html=1;exitX=1;exitY=0.5;exitDx=0;exitDy=0;entryX=0.5;entryY=0;entryDx=0;entryDy=0;" parent="1" source="IoRThD0YpW3yYK1RBAOI-3" target="IoRThD0YpW3yYK1RBAOI-54" edge="1">
          <mxGeometry relative="1" as="geometry" />
        </mxCell>
        <mxCell id="IoRThD0YpW3yYK1RBAOI-3" value="Bucket of Latex" style="rounded=0;whiteSpace=wrap;html=1;" parent="1" vertex="1">
          <mxGeometry x="190" y="120" width="120" height="60" as="geometry" />
        </mxCell>
        <mxCell id="IoRThD0YpW3yYK1RBAOI-7" style="edgeStyle=orthogonalEdgeStyle;rounded=0;orthogonalLoop=1;jettySize=auto;html=1;exitX=0.5;exitY=1;exitDx=0;exitDy=0;entryX=0.5;entryY=1;entryDx=0;entryDy=0;" parent="1" source="IoRThD0YpW3yYK1RBAOI-53" target="IoRThD0YpW3yYK1RBAOI-3" edge="1">
          <mxGeometry relative="1" as="geometry">
            <mxPoint x="100" y="220" as="sourcePoint" />
          </mxGeometry>
        </mxCell>
        <mxCell id="IoRThD0YpW3yYK1RBAOI-16" style="edgeStyle=orthogonalEdgeStyle;rounded=0;orthogonalLoop=1;jettySize=auto;html=1;exitX=1;exitY=0.5;exitDx=0;exitDy=0;entryX=0.5;entryY=0;entryDx=0;entryDy=0;" parent="1" target="IoRThD0YpW3yYK1RBAOI-14" edge="1">
          <mxGeometry relative="1" as="geometry">
            <mxPoint x="460" y="50" as="sourcePoint" />
          </mxGeometry>
        </mxCell>
        <mxCell id="IoRThD0YpW3yYK1RBAOI-32" style="edgeStyle=orthogonalEdgeStyle;rounded=0;orthogonalLoop=1;jettySize=auto;html=1;exitX=1;exitY=0.5;exitDx=0;exitDy=0;entryX=0;entryY=0.5;entryDx=0;entryDy=0;" parent="1" source="IoRThD0YpW3yYK1RBAOI-14" edge="1">
          <mxGeometry relative="1" as="geometry">
            <mxPoint x="650" y="150" as="targetPoint" />
          </mxGeometry>
        </mxCell>
        <mxCell id="IoRThD0YpW3yYK1RBAOI-14" value="Bucket of Coagulated Rubber" style="rounded=0;whiteSpace=wrap;html=1;" parent="1" vertex="1">
          <mxGeometry x="490" y="120" width="120" height="60" as="geometry" />
        </mxCell>
        <mxCell id="IoRThD0YpW3yYK1RBAOI-34" style="edgeStyle=orthogonalEdgeStyle;rounded=0;orthogonalLoop=1;jettySize=auto;html=1;exitX=1;exitY=0.5;exitDx=0;exitDy=0;entryX=0;entryY=0.5;entryDx=0;entryDy=0;" parent="1" target="IoRThD0YpW3yYK1RBAOI-33" edge="1">
          <mxGeometry relative="1" as="geometry">
            <mxPoint x="770" y="150" as="sourcePoint" />
          </mxGeometry>
        </mxCell>
        <mxCell id="IoRThD0YpW3yYK1RBAOI-36" style="edgeStyle=orthogonalEdgeStyle;rounded=0;orthogonalLoop=1;jettySize=auto;html=1;exitX=1;exitY=0.5;exitDx=0;exitDy=0;entryX=0;entryY=0.5;entryDx=0;entryDy=0;" parent="1" source="IoRThD0YpW3yYK1RBAOI-33" edge="1">
          <mxGeometry relative="1" as="geometry">
            <mxPoint x="970" y="150" as="targetPoint" />
          </mxGeometry>
        </mxCell>
        <mxCell id="IoRThD0YpW3yYK1RBAOI-33" value="Untreated Rubber" style="rounded=0;whiteSpace=wrap;html=1;" parent="1" vertex="1">
          <mxGeometry x="810" y="120" width="120" height="60" as="geometry" />
        </mxCell>
        <mxCell id="IoRThD0YpW3yYK1RBAOI-38" style="edgeStyle=orthogonalEdgeStyle;rounded=0;orthogonalLoop=1;jettySize=auto;html=1;exitX=1;exitY=0.5;exitDx=0;exitDy=0;entryX=0;entryY=0.5;entryDx=0;entryDy=0;" parent="1" target="IoRThD0YpW3yYK1RBAOI-37" edge="1">
          <mxGeometry relative="1" as="geometry">
            <mxPoint x="1090" y="150" as="sourcePoint" />
          </mxGeometry>
        </mxCell>
        <mxCell id="IoRThD0YpW3yYK1RBAOI-37" value="Rubber" style="rounded=0;whiteSpace=wrap;html=1;" parent="1" vertex="1">
          <mxGeometry x="1130" y="120" width="120" height="60" as="geometry" />
        </mxCell>
        <mxCell id="IoRThD0YpW3yYK1RBAOI-50" value="Rope" style="rounded=1;whiteSpace=wrap;html=1;" parent="1" vertex="1">
          <mxGeometry x="340" y="20" width="120" height="60" as="geometry" />
        </mxCell>
        <mxCell id="IoRThD0YpW3yYK1RBAOI-51" value="Ammonium hydroxide" style="rounded=1;whiteSpace=wrap;html=1;" parent="1" vertex="1">
          <mxGeometry x="650" y="120" width="120" height="60" as="geometry" />
        </mxCell>
        <mxCell id="IoRThD0YpW3yYK1RBAOI-52" value="Sulfur" style="rounded=1;whiteSpace=wrap;html=1;" parent="1" vertex="1">
          <mxGeometry x="970" y="120" width="120" height="60" as="geometry" />
        </mxCell>
        <mxCell id="IoRThD0YpW3yYK1RBAOI-53" value="Tree Tap" style="rounded=1;whiteSpace=wrap;html=1;" parent="1" vertex="1">
          <mxGeometry x="40" y="150" width="120" height="60" as="geometry" />
        </mxCell>
        <mxCell id="IoRThD0YpW3yYK1RBAOI-56" style="edgeStyle=orthogonalEdgeStyle;rounded=0;orthogonalLoop=1;jettySize=auto;html=1;exitX=1;exitY=0.5;exitDx=0;exitDy=0;entryX=0.5;entryY=1;entryDx=0;entryDy=0;" parent="1" source="IoRThD0YpW3yYK1RBAOI-54" target="IoRThD0YpW3yYK1RBAOI-14" edge="1">
          <mxGeometry relative="1" as="geometry" />
        </mxCell>
        <mxCell id="IoRThD0YpW3yYK1RBAOI-54" value="Formic Acid or Sodium Bisulfate" style="rounded=1;whiteSpace=wrap;html=1;" parent="1" vertex="1">
          <mxGeometry x="340" y="220" width="120" height="60" as="geometry" />
        </mxCell>
        <mxCell id="IoRThD0YpW3yYK1RBAOI-58" value="Formic Acid" style="rounded=1;whiteSpace=wrap;html=1;" parent="1" vertex="1">
          <mxGeometry x="840" y="390" width="120" height="60" as="geometry" />
        </mxCell>
        <mxCell id="IoRThD0YpW3yYK1RBAOI-69" style="edgeStyle=orthogonalEdgeStyle;rounded=0;orthogonalLoop=1;jettySize=auto;html=1;exitX=1;exitY=0.5;exitDx=0;exitDy=0;entryX=0;entryY=0.5;entryDx=0;entryDy=0;" parent="1" source="IoRThD0YpW3yYK1RBAOI-59" target="IoRThD0YpW3yYK1RBAOI-58" edge="1">
          <mxGeometry relative="1" as="geometry" />
        </mxCell>
        <mxCell id="IoRThD0YpW3yYK1RBAOI-59" value="Purification Chamber" style="rounded=1;whiteSpace=wrap;html=1;" parent="1" vertex="1">
          <mxGeometry x="680" y="390" width="120" height="60" as="geometry" />
        </mxCell>
        <mxCell id="IoRThD0YpW3yYK1RBAOI-62" value="&lt;h1&gt;Cleaning&lt;/h1&gt;" style="text;html=1;strokeColor=none;fillColor=none;spacing=5;spacingTop=-20;whiteSpace=wrap;overflow=hidden;rounded=0;" parent="1" vertex="1">
          <mxGeometry x="653.5" y="80" width="113" height="40" as="geometry" />
        </mxCell>
        <mxCell id="IoRThD0YpW3yYK1RBAOI-63" value="&lt;h1&gt;Vulcanization&lt;/h1&gt;" style="text;html=1;strokeColor=none;fillColor=none;spacing=5;spacingTop=-20;whiteSpace=wrap;overflow=hidden;rounded=0;" parent="1" vertex="1">
          <mxGeometry x="948.5" y="80" width="163" height="40" as="geometry" />
        </mxCell>
        <mxCell id="IoRThD0YpW3yYK1RBAOI-72" style="edgeStyle=orthogonalEdgeStyle;rounded=0;orthogonalLoop=1;jettySize=auto;html=1;exitX=1;exitY=0.5;exitDx=0;exitDy=0;entryX=0.5;entryY=0;entryDx=0;entryDy=0;" parent="1" source="IoRThD0YpW3yYK1RBAOI-70" target="IoRThD0YpW3yYK1RBAOI-59" edge="1">
          <mxGeometry relative="1" as="geometry" />
        </mxCell>
        <mxCell id="IoRThD0YpW3yYK1RBAOI-70" value="Stung by bee whilst holding glass bottle" style="rounded=1;whiteSpace=wrap;html=1;" parent="1" vertex="1">
          <mxGeometry x="520" y="330" width="120" height="60" as="geometry" />
        </mxCell>
        <mxCell id="IoRThD0YpW3yYK1RBAOI-89" style="edgeStyle=orthogonalEdgeStyle;rounded=0;orthogonalLoop=1;jettySize=auto;html=1;exitX=1;exitY=0.5;exitDx=0;exitDy=0;entryX=0;entryY=0.5;entryDx=0;entryDy=0;" parent="1" source="IoRThD0YpW3yYK1RBAOI-71" target="IoRThD0YpW3yYK1RBAOI-59" edge="1">
          <mxGeometry relative="1" as="geometry" />
        </mxCell>
        <mxCell id="IoRThD0YpW3yYK1RBAOI-90" style="edgeStyle=orthogonalEdgeStyle;rounded=0;orthogonalLoop=1;jettySize=auto;html=1;exitX=1;exitY=0.5;exitDx=0;exitDy=0;entryX=0;entryY=0.5;entryDx=0;entryDy=0;" parent="1" source="IoRThD0YpW3yYK1RBAOI-71" target="IoRThD0YpW3yYK1RBAOI-87" edge="1">
          <mxGeometry relative="1" as="geometry" />
        </mxCell>
        <mxCell id="IoRThD0YpW3yYK1RBAOI-71" value="Distillation Unit" style="rounded=1;whiteSpace=wrap;html=1;" parent="1" vertex="1">
          <mxGeometry x="520" y="450" width="120" height="60" as="geometry" />
        </mxCell>
        <mxCell id="IoRThD0YpW3yYK1RBAOI-76" style="edgeStyle=orthogonalEdgeStyle;rounded=0;orthogonalLoop=1;jettySize=auto;html=1;exitX=1;exitY=0.5;exitDx=0;exitDy=0;entryX=0;entryY=0.5;entryDx=0;entryDy=0;" parent="1" source="IoRThD0YpW3yYK1RBAOI-75" target="IoRThD0YpW3yYK1RBAOI-71" edge="1">
          <mxGeometry relative="1" as="geometry" />
        </mxCell>
        <mxCell id="IoRThD0YpW3yYK1RBAOI-75" value="Diluted Formic Acid" style="rounded=0;whiteSpace=wrap;html=1;" parent="1" vertex="1">
          <mxGeometry x="360" y="450" width="120" height="60" as="geometry" />
        </mxCell>
        <mxCell id="IoRThD0YpW3yYK1RBAOI-77" value="Hydrogen Gas" style="rounded=0;whiteSpace=wrap;html=1;" parent="1" vertex="1">
          <mxGeometry x="360" y="550" width="120" height="60" as="geometry" />
        </mxCell>
        <mxCell id="IoRThD0YpW3yYK1RBAOI-83" style="edgeStyle=orthogonalEdgeStyle;rounded=0;orthogonalLoop=1;jettySize=auto;html=1;exitX=1;exitY=0.5;exitDx=0;exitDy=0;entryX=0;entryY=0.5;entryDx=0;entryDy=0;" parent="1" source="IoRThD0YpW3yYK1RBAOI-78" target="IoRThD0YpW3yYK1RBAOI-80" edge="1">
          <mxGeometry relative="1" as="geometry" />
        </mxCell>
        <mxCell id="IoRThD0YpW3yYK1RBAOI-78" value="Methanol" style="rounded=1;whiteSpace=wrap;html=1;" parent="1" vertex="1">
          <mxGeometry x="40" y="450" width="120" height="60" as="geometry" />
        </mxCell>
        <mxCell id="IoRThD0YpW3yYK1RBAOI-84" style="edgeStyle=orthogonalEdgeStyle;rounded=0;orthogonalLoop=1;jettySize=auto;html=1;exitX=1;exitY=0.5;exitDx=0;exitDy=0;entryX=0;entryY=0.5;entryDx=0;entryDy=0;" parent="1" source="IoRThD0YpW3yYK1RBAOI-79" target="IoRThD0YpW3yYK1RBAOI-80" edge="1">
          <mxGeometry relative="1" as="geometry" />
        </mxCell>
        <mxCell id="IoRThD0YpW3yYK1RBAOI-79" value="Carbon Monoxide" style="rounded=1;whiteSpace=wrap;html=1;" parent="1" vertex="1">
          <mxGeometry x="40" y="550" width="120" height="60" as="geometry" />
        </mxCell>
        <mxCell id="IoRThD0YpW3yYK1RBAOI-81" style="edgeStyle=orthogonalEdgeStyle;rounded=0;orthogonalLoop=1;jettySize=auto;html=1;exitX=1;exitY=0.5;exitDx=0;exitDy=0;entryX=0;entryY=0.5;entryDx=0;entryDy=0;" parent="1" source="IoRThD0YpW3yYK1RBAOI-80" target="IoRThD0YpW3yYK1RBAOI-75" edge="1">
          <mxGeometry relative="1" as="geometry" />
        </mxCell>
        <mxCell id="IoRThD0YpW3yYK1RBAOI-82" style="edgeStyle=orthogonalEdgeStyle;rounded=0;orthogonalLoop=1;jettySize=auto;html=1;exitX=1;exitY=0.5;exitDx=0;exitDy=0;entryX=0;entryY=0.5;entryDx=0;entryDy=0;" parent="1" source="IoRThD0YpW3yYK1RBAOI-80" target="IoRThD0YpW3yYK1RBAOI-77" edge="1">
          <mxGeometry relative="1" as="geometry" />
        </mxCell>
        <mxCell id="IoRThD0YpW3yYK1RBAOI-80" value="Agitator" style="rounded=1;whiteSpace=wrap;html=1;" parent="1" vertex="1">
          <mxGeometry x="200" y="500" width="120" height="60" as="geometry" />
        </mxCell>
        <mxCell id="IoRThD0YpW3yYK1RBAOI-85" value="Sodium Bisulfate" style="rounded=1;whiteSpace=wrap;html=1;" parent="1" vertex="1">
          <mxGeometry x="679" y="690" width="120" height="60" as="geometry" />
        </mxCell>
        <mxCell id="IoRThD0YpW3yYK1RBAOI-87" value="Water" style="rounded=0;whiteSpace=wrap;html=1;" parent="1" vertex="1">
          <mxGeometry x="680" y="510" width="120" height="60" as="geometry" />
        </mxCell>
        <mxCell id="IoRThD0YpW3yYK1RBAOI-104" style="edgeStyle=orthogonalEdgeStyle;rounded=0;orthogonalLoop=1;jettySize=auto;html=1;exitX=1;exitY=0.5;exitDx=0;exitDy=0;entryX=0;entryY=0.5;entryDx=0;entryDy=0;" parent="1" source="IoRThD0YpW3yYK1RBAOI-97" target="IoRThD0YpW3yYK1RBAOI-101" edge="1">
          <mxGeometry relative="1" as="geometry" />
        </mxCell>
        <mxCell id="PqFkK2XVgemiq2zy29Ep-1" style="edgeStyle=orthogonalEdgeStyle;rounded=0;orthogonalLoop=1;jettySize=auto;html=1;exitX=1;exitY=0.5;exitDx=0;exitDy=0;entryX=0;entryY=0.5;entryDx=0;entryDy=0;" parent="1" source="IoRThD0YpW3yYK1RBAOI-97" target="IoRThD0YpW3yYK1RBAOI-85" edge="1">
          <mxGeometry relative="1" as="geometry" />
        </mxCell>
        <mxCell id="IoRThD0YpW3yYK1RBAOI-97" value="Centrifuge" style="rounded=1;whiteSpace=wrap;html=1;" parent="1" vertex="1">
          <mxGeometry x="515" y="750" width="120" height="60" as="geometry" />
        </mxCell>
        <mxCell id="IoRThD0YpW3yYK1RBAOI-106" style="edgeStyle=orthogonalEdgeStyle;rounded=0;orthogonalLoop=1;jettySize=auto;html=1;exitX=1;exitY=0.5;exitDx=0;exitDy=0;entryX=0;entryY=0.5;entryDx=0;entryDy=0;" parent="1" source="IoRThD0YpW3yYK1RBAOI-99" target="IoRThD0YpW3yYK1RBAOI-97" edge="1">
          <mxGeometry relative="1" as="geometry" />
        </mxCell>
        <mxCell id="IoRThD0YpW3yYK1RBAOI-99" value="Diluted Sodium Bisulfate" style="rounded=0;whiteSpace=wrap;html=1;" parent="1" vertex="1">
          <mxGeometry x="360" y="750" width="120" height="60" as="geometry" />
        </mxCell>
        <mxCell id="IoRThD0YpW3yYK1RBAOI-101" value="Water" style="rounded=0;whiteSpace=wrap;html=1;" parent="1" vertex="1">
          <mxGeometry x="679" y="811" width="120" height="60" as="geometry" />
        </mxCell>
        <mxCell id="IoRThD0YpW3yYK1RBAOI-109" style="edgeStyle=orthogonalEdgeStyle;rounded=0;orthogonalLoop=1;jettySize=auto;html=1;exitX=1;exitY=0.5;exitDx=0;exitDy=0;entryX=0;entryY=0.5;entryDx=0;entryDy=0;" parent="1" source="IoRThD0YpW3yYK1RBAOI-108" target="IoRThD0YpW3yYK1RBAOI-112" edge="1">
          <mxGeometry relative="1" as="geometry" />
        </mxCell>
        <mxCell id="IoRThD0YpW3yYK1RBAOI-108" value="Sodium Carbonate" style="rounded=1;whiteSpace=wrap;html=1;" parent="1" vertex="1">
          <mxGeometry x="42" y="690" width="120" height="60" as="geometry" />
        </mxCell>
        <mxCell id="IoRThD0YpW3yYK1RBAOI-111" style="edgeStyle=orthogonalEdgeStyle;rounded=0;orthogonalLoop=1;jettySize=auto;html=1;exitX=1;exitY=0.5;exitDx=0;exitDy=0;entryX=0;entryY=0.5;entryDx=0;entryDy=0;" parent="1" source="IoRThD0YpW3yYK1RBAOI-110" target="IoRThD0YpW3yYK1RBAOI-112" edge="1">
          <mxGeometry relative="1" as="geometry" />
        </mxCell>
        <mxCell id="IoRThD0YpW3yYK1RBAOI-110" value="Sulfuric Acid" style="rounded=1;whiteSpace=wrap;html=1;" parent="1" vertex="1">
          <mxGeometry x="40" y="810" width="120" height="60" as="geometry" />
        </mxCell>
        <mxCell id="IoRThD0YpW3yYK1RBAOI-113" style="edgeStyle=orthogonalEdgeStyle;rounded=0;orthogonalLoop=1;jettySize=auto;html=1;exitX=1;exitY=0.5;exitDx=0;exitDy=0;entryX=0;entryY=0.5;entryDx=0;entryDy=0;" parent="1" source="IoRThD0YpW3yYK1RBAOI-112" target="IoRThD0YpW3yYK1RBAOI-99" edge="1">
          <mxGeometry relative="1" as="geometry" />
        </mxCell>
        <mxCell id="IoRThD0YpW3yYK1RBAOI-112" value="Agitator" style="rounded=1;whiteSpace=wrap;html=1;" parent="1" vertex="1">
          <mxGeometry x="209" y="750" width="120" height="60" as="geometry" />
        </mxCell>
        <mxCell id="IoRThD0YpW3yYK1RBAOI-114" value="Methanol" style="rounded=1;whiteSpace=wrap;html=1;" parent="1" vertex="1">
          <mxGeometry x="200" y="980" width="120" height="60" as="geometry" />
        </mxCell>
        <mxCell id="IoRThD0YpW3yYK1RBAOI-118" style="edgeStyle=orthogonalEdgeStyle;rounded=0;orthogonalLoop=1;jettySize=auto;html=1;exitX=1;exitY=0.5;exitDx=0;exitDy=0;entryX=0.5;entryY=0;entryDx=0;entryDy=0;" parent="1" source="IoRThD0YpW3yYK1RBAOI-115" target="IoRThD0YpW3yYK1RBAOI-114" edge="1">
          <mxGeometry relative="1" as="geometry" />
        </mxCell>
        <mxCell id="IoRThD0YpW3yYK1RBAOI-115" value="Steam Reformation" style="rounded=1;whiteSpace=wrap;html=1;" parent="1" vertex="1">
          <mxGeometry x="40" y="920" width="120" height="60" as="geometry" />
        </mxCell>
        <mxCell id="IoRThD0YpW3yYK1RBAOI-117" style="edgeStyle=orthogonalEdgeStyle;rounded=0;orthogonalLoop=1;jettySize=auto;html=1;exitX=1;exitY=0.5;exitDx=0;exitDy=0;entryX=0.5;entryY=1;entryDx=0;entryDy=0;" parent="1" source="IoRThD0YpW3yYK1RBAOI-116" target="IoRThD0YpW3yYK1RBAOI-114" edge="1">
          <mxGeometry relative="1" as="geometry" />
        </mxCell>
        <mxCell id="IoRThD0YpW3yYK1RBAOI-116" value="Gasification" style="rounded=1;whiteSpace=wrap;html=1;" parent="1" vertex="1">
          <mxGeometry x="39" y="1040" width="120" height="60" as="geometry" />
        </mxCell>
        <mxCell id="IoRThD0YpW3yYK1RBAOI-119" value="Carbon Monoxide" style="rounded=1;whiteSpace=wrap;html=1;" parent="1" vertex="1">
          <mxGeometry x="209" y="1180" width="120" height="60" as="geometry" />
        </mxCell>
        <mxCell id="IoRThD0YpW3yYK1RBAOI-126" style="edgeStyle=orthogonalEdgeStyle;rounded=0;orthogonalLoop=1;jettySize=auto;html=1;exitX=1;exitY=0.5;exitDx=0;exitDy=0;entryX=0;entryY=0.5;entryDx=0;entryDy=0;" parent="1" source="IoRThD0YpW3yYK1RBAOI-125" target="IoRThD0YpW3yYK1RBAOI-119" edge="1">
          <mxGeometry relative="1" as="geometry" />
        </mxCell>
        <mxCell id="IoRThD0YpW3yYK1RBAOI-125" value="Steam Reformation" style="rounded=1;whiteSpace=wrap;html=1;" parent="1" vertex="1">
          <mxGeometry x="39" y="1180" width="120" height="60" as="geometry" />
        </mxCell>
        <mxCell id="IoRThD0YpW3yYK1RBAOI-127" value="Sodium Carbonate" style="rounded=1;whiteSpace=wrap;html=1;" parent="1" vertex="1">
          <mxGeometry x="1000" y="1340" width="120" height="60" as="geometry" />
        </mxCell>
        <mxCell id="IoRThD0YpW3yYK1RBAOI-135" style="edgeStyle=orthogonalEdgeStyle;rounded=0;orthogonalLoop=1;jettySize=auto;html=1;exitX=1;exitY=0.5;exitDx=0;exitDy=0;entryX=0;entryY=0.5;entryDx=0;entryDy=0;" parent="1" source="IoRThD0YpW3yYK1RBAOI-131" target="IoRThD0YpW3yYK1RBAOI-127" edge="1">
          <mxGeometry relative="1" as="geometry" />
        </mxCell>
        <mxCell id="IoRThD0YpW3yYK1RBAOI-131" value="Drying Rack" style="rounded=1;whiteSpace=wrap;html=1;" parent="1" vertex="1">
          <mxGeometry x="840" y="1340" width="120" height="60" as="geometry" />
        </mxCell>
        <mxCell id="IoRThD0YpW3yYK1RBAOI-132" style="edgeStyle=orthogonalEdgeStyle;rounded=0;orthogonalLoop=1;jettySize=auto;html=1;exitX=1;exitY=0.5;exitDx=0;exitDy=0;entryX=0;entryY=0.5;entryDx=0;entryDy=0;" parent="1" source="IoRThD0YpW3yYK1RBAOI-133" target="IoRThD0YpW3yYK1RBAOI-131" edge="1">
          <mxGeometry relative="1" as="geometry" />
        </mxCell>
        <mxCell id="IoRThD0YpW3yYK1RBAOI-133" value="Clean Sodium Carbonate" style="rounded=0;whiteSpace=wrap;html=1;" parent="1" vertex="1">
          <mxGeometry x="680" y="1340" width="120" height="60" as="geometry" />
        </mxCell>
        <mxCell id="IoRThD0YpW3yYK1RBAOI-139" style="edgeStyle=orthogonalEdgeStyle;rounded=0;orthogonalLoop=1;jettySize=auto;html=1;exitX=1;exitY=0.5;exitDx=0;exitDy=0;entryX=0;entryY=0.5;entryDx=0;entryDy=0;" parent="1" source="IoRThD0YpW3yYK1RBAOI-137" target="IoRThD0YpW3yYK1RBAOI-133" edge="1">
          <mxGeometry relative="1" as="geometry" />
        </mxCell>
        <mxCell id="IoRThD0YpW3yYK1RBAOI-137" value="Ammonium hydroxide" style="rounded=1;whiteSpace=wrap;html=1;" parent="1" vertex="1">
          <mxGeometry x="520" y="1340" width="120" height="60" as="geometry" />
        </mxCell>
        <mxCell id="IoRThD0YpW3yYK1RBAOI-138" value="&lt;h1&gt;Cleaning&lt;/h1&gt;" style="text;html=1;strokeColor=none;fillColor=none;spacing=5;spacingTop=-20;whiteSpace=wrap;overflow=hidden;rounded=0;" parent="1" vertex="1">
          <mxGeometry x="523.5" y="1300" width="113" height="40" as="geometry" />
        </mxCell>
        <mxCell id="IoRThD0YpW3yYK1RBAOI-141" style="edgeStyle=orthogonalEdgeStyle;rounded=0;orthogonalLoop=1;jettySize=auto;html=1;exitX=1;exitY=0.5;exitDx=0;exitDy=0;entryX=0;entryY=0.5;entryDx=0;entryDy=0;" parent="1" source="IoRThD0YpW3yYK1RBAOI-140" target="IoRThD0YpW3yYK1RBAOI-137" edge="1">
          <mxGeometry relative="1" as="geometry" />
        </mxCell>
        <mxCell id="IoRThD0YpW3yYK1RBAOI-140" value="Dirty Sodium Carbonate" style="rounded=0;whiteSpace=wrap;html=1;" parent="1" vertex="1">
          <mxGeometry x="360" y="1340" width="120" height="60" as="geometry" />
        </mxCell>
        <mxCell id="IoRThD0YpW3yYK1RBAOI-143" style="edgeStyle=orthogonalEdgeStyle;rounded=0;orthogonalLoop=1;jettySize=auto;html=1;exitX=1;exitY=0.5;exitDx=0;exitDy=0;entryX=0;entryY=0.5;entryDx=0;entryDy=0;" parent="1" source="IoRThD0YpW3yYK1RBAOI-142" target="IoRThD0YpW3yYK1RBAOI-140" edge="1">
          <mxGeometry relative="1" as="geometry" />
        </mxCell>
        <mxCell id="IoRThD0YpW3yYK1RBAOI-142" value="Centrifuge" style="rounded=1;whiteSpace=wrap;html=1;" parent="1" vertex="1">
          <mxGeometry x="200" y="1340" width="120" height="60" as="geometry" />
        </mxCell>
        <mxCell id="IoRThD0YpW3yYK1RBAOI-145" style="edgeStyle=orthogonalEdgeStyle;rounded=0;orthogonalLoop=1;jettySize=auto;html=1;exitX=1;exitY=0.5;exitDx=0;exitDy=0;entryX=0.5;entryY=0;entryDx=0;entryDy=0;" parent="1" source="IoRThD0YpW3yYK1RBAOI-144" target="IoRThD0YpW3yYK1RBAOI-142" edge="1">
          <mxGeometry relative="1" as="geometry" />
        </mxCell>
        <mxCell id="IoRThD0YpW3yYK1RBAOI-144" value="Diluted Sodium Carbonate" style="rounded=1;whiteSpace=wrap;html=1;" parent="1" vertex="1">
          <mxGeometry x="42" y="1280" width="120" height="60" as="geometry" />
        </mxCell>
        <mxCell id="IoRThD0YpW3yYK1RBAOI-147" style="edgeStyle=orthogonalEdgeStyle;rounded=0;orthogonalLoop=1;jettySize=auto;html=1;exitX=1;exitY=0.5;exitDx=0;exitDy=0;entryX=0.5;entryY=1;entryDx=0;entryDy=0;" parent="1" source="IoRThD0YpW3yYK1RBAOI-146" target="IoRThD0YpW3yYK1RBAOI-142" edge="1">
          <mxGeometry relative="1" as="geometry" />
        </mxCell>
        <mxCell id="IoRThD0YpW3yYK1RBAOI-146" value="Crystalized Sodium Carbonate" style="rounded=1;whiteSpace=wrap;html=1;" parent="1" vertex="1">
          <mxGeometry x="42" y="1400" width="120" height="60" as="geometry" />
        </mxCell>
        <mxCell id="IoRThD0YpW3yYK1RBAOI-148" value="Diluted Sodium Carbonate" style="rounded=1;whiteSpace=wrap;html=1;" parent="1" vertex="1">
          <mxGeometry x="361" y="1600" width="120" height="60" as="geometry" />
        </mxCell>
        <mxCell id="IoRThD0YpW3yYK1RBAOI-149" value="Water" style="rounded=0;whiteSpace=wrap;html=1;" parent="1" vertex="1">
          <mxGeometry x="361" y="1690" width="120" height="60" as="geometry" />
        </mxCell>
        <mxCell id="IoRThD0YpW3yYK1RBAOI-150" value="Calcium Chloride" style="rounded=0;whiteSpace=wrap;html=1;" parent="1" vertex="1">
          <mxGeometry x="361" y="1510" width="120" height="60" as="geometry" />
        </mxCell>
        <mxCell id="IoRThD0YpW3yYK1RBAOI-152" style="edgeStyle=orthogonalEdgeStyle;rounded=0;orthogonalLoop=1;jettySize=auto;html=1;exitX=1;exitY=0.5;exitDx=0;exitDy=0;entryX=0;entryY=0.5;entryDx=0;entryDy=0;" parent="1" source="IoRThD0YpW3yYK1RBAOI-151" target="IoRThD0YpW3yYK1RBAOI-150" edge="1">
          <mxGeometry relative="1" as="geometry" />
        </mxCell>
        <mxCell id="IoRThD0YpW3yYK1RBAOI-153" style="edgeStyle=orthogonalEdgeStyle;rounded=0;orthogonalLoop=1;jettySize=auto;html=1;exitX=1;exitY=0.5;exitDx=0;exitDy=0;entryX=0;entryY=0.5;entryDx=0;entryDy=0;" parent="1" source="IoRThD0YpW3yYK1RBAOI-151" target="IoRThD0YpW3yYK1RBAOI-148" edge="1">
          <mxGeometry relative="1" as="geometry" />
        </mxCell>
        <mxCell id="IoRThD0YpW3yYK1RBAOI-154" style="edgeStyle=orthogonalEdgeStyle;rounded=0;orthogonalLoop=1;jettySize=auto;html=1;exitX=1;exitY=0.5;exitDx=0;exitDy=0;entryX=0;entryY=0.5;entryDx=0;entryDy=0;" parent="1" source="IoRThD0YpW3yYK1RBAOI-151" target="IoRThD0YpW3yYK1RBAOI-149" edge="1">
          <mxGeometry relative="1" as="geometry" />
        </mxCell>
        <mxCell id="IoRThD0YpW3yYK1RBAOI-151" value="Agitator" style="rounded=1;whiteSpace=wrap;html=1;" parent="1" vertex="1">
          <mxGeometry x="201" y="1600" width="120" height="60" as="geometry" />
        </mxCell>
        <mxCell id="IoRThD0YpW3yYK1RBAOI-156" style="edgeStyle=orthogonalEdgeStyle;rounded=0;orthogonalLoop=1;jettySize=auto;html=1;exitX=1;exitY=0.5;exitDx=0;exitDy=0;entryX=0;entryY=0.5;entryDx=0;entryDy=0;" parent="1" source="IoRThD0YpW3yYK1RBAOI-155" target="IoRThD0YpW3yYK1RBAOI-151" edge="1">
          <mxGeometry relative="1" as="geometry" />
        </mxCell>
        <mxCell id="IoRThD0YpW3yYK1RBAOI-155" value="Sodium Chloride (Table Salt)" style="rounded=1;whiteSpace=wrap;html=1;" parent="1" vertex="1">
          <mxGeometry x="41" y="1510" width="120" height="60" as="geometry" />
        </mxCell>
        <mxCell id="IoRThD0YpW3yYK1RBAOI-158" style="edgeStyle=orthogonalEdgeStyle;rounded=0;orthogonalLoop=1;jettySize=auto;html=1;exitX=1;exitY=0.5;exitDx=0;exitDy=0;entryX=0;entryY=0.5;entryDx=0;entryDy=0;" parent="1" source="IoRThD0YpW3yYK1RBAOI-157" target="IoRThD0YpW3yYK1RBAOI-151" edge="1">
          <mxGeometry relative="1" as="geometry" />
        </mxCell>
        <mxCell id="IoRThD0YpW3yYK1RBAOI-157" value="Ammonia" style="rounded=1;whiteSpace=wrap;html=1;" parent="1" vertex="1">
          <mxGeometry x="40" y="1600" width="120" height="60" as="geometry" />
        </mxCell>
        <mxCell id="IoRThD0YpW3yYK1RBAOI-160" style="edgeStyle=orthogonalEdgeStyle;rounded=0;orthogonalLoop=1;jettySize=auto;html=1;exitX=1;exitY=0.5;exitDx=0;exitDy=0;entryX=0;entryY=0.5;entryDx=0;entryDy=0;" parent="1" source="IoRThD0YpW3yYK1RBAOI-159" target="IoRThD0YpW3yYK1RBAOI-151" edge="1">
          <mxGeometry relative="1" as="geometry" />
        </mxCell>
        <mxCell id="IoRThD0YpW3yYK1RBAOI-159" value="Carbon Dioxide" style="rounded=1;whiteSpace=wrap;html=1;" parent="1" vertex="1">
          <mxGeometry x="40" y="1690" width="120" height="60" as="geometry" />
        </mxCell>
        <mxCell id="IoRThD0YpW3yYK1RBAOI-161" value="Crystalized Sodium Carbonate" style="rounded=1;whiteSpace=wrap;html=1;" parent="1" vertex="1">
          <mxGeometry x="842" y="1910" width="120" height="60" as="geometry" />
        </mxCell>
        <mxCell id="IoRThD0YpW3yYK1RBAOI-163" style="edgeStyle=orthogonalEdgeStyle;rounded=0;orthogonalLoop=1;jettySize=auto;html=1;exitX=1;exitY=0.5;exitDx=0;exitDy=0;entryX=0;entryY=0.5;entryDx=0;entryDy=0;" parent="1" source="IoRThD0YpW3yYK1RBAOI-162" target="IoRThD0YpW3yYK1RBAOI-161" edge="1">
          <mxGeometry relative="1" as="geometry" />
        </mxCell>
        <mxCell id="IoRThD0YpW3yYK1RBAOI-162" value="Crystallizer" style="rounded=1;whiteSpace=wrap;html=1;" parent="1" vertex="1">
          <mxGeometry x="682" y="1910" width="120" height="60" as="geometry" />
        </mxCell>
        <mxCell id="IoRThD0YpW3yYK1RBAOI-167" style="edgeStyle=orthogonalEdgeStyle;rounded=0;orthogonalLoop=1;jettySize=auto;html=1;exitX=1;exitY=0.5;exitDx=0;exitDy=0;entryX=0.5;entryY=0;entryDx=0;entryDy=0;" parent="1" source="IoRThD0YpW3yYK1RBAOI-164" target="IoRThD0YpW3yYK1RBAOI-162" edge="1">
          <mxGeometry relative="1" as="geometry" />
        </mxCell>
        <mxCell id="IoRThD0YpW3yYK1RBAOI-164" value="Trona Ingot" style="rounded=0;whiteSpace=wrap;html=1;" parent="1" vertex="1">
          <mxGeometry x="521" y="1850" width="120" height="60" as="geometry" />
        </mxCell>
        <mxCell id="IoRThD0YpW3yYK1RBAOI-166" style="edgeStyle=orthogonalEdgeStyle;rounded=0;orthogonalLoop=1;jettySize=auto;html=1;exitX=1;exitY=0.5;exitDx=0;exitDy=0;entryX=0.5;entryY=1;entryDx=0;entryDy=0;" parent="1" source="IoRThD0YpW3yYK1RBAOI-165" target="IoRThD0YpW3yYK1RBAOI-162" edge="1">
          <mxGeometry relative="1" as="geometry" />
        </mxCell>
        <mxCell id="IoRThD0YpW3yYK1RBAOI-165" value="Nahcolite Ingot" style="rounded=0;whiteSpace=wrap;html=1;" parent="1" vertex="1">
          <mxGeometry x="521" y="1971" width="120" height="60" as="geometry" />
        </mxCell>
        <mxCell id="IoRThD0YpW3yYK1RBAOI-180" style="edgeStyle=orthogonalEdgeStyle;rounded=0;orthogonalLoop=1;jettySize=auto;html=1;exitX=1;exitY=0.5;exitDx=0;exitDy=0;entryX=0;entryY=0.5;entryDx=0;entryDy=0;" parent="1" source="IoRThD0YpW3yYK1RBAOI-168" target="IoRThD0YpW3yYK1RBAOI-175" edge="1">
          <mxGeometry relative="1" as="geometry" />
        </mxCell>
        <mxCell id="IoRThD0YpW3yYK1RBAOI-168" value="Crusher" style="rounded=1;whiteSpace=wrap;html=1;" parent="1" vertex="1">
          <mxGeometry x="202" y="1850" width="120" height="60" as="geometry" />
        </mxCell>
        <mxCell id="IoRThD0YpW3yYK1RBAOI-181" style="edgeStyle=orthogonalEdgeStyle;rounded=0;orthogonalLoop=1;jettySize=auto;html=1;exitX=1;exitY=0.5;exitDx=0;exitDy=0;entryX=0;entryY=0.5;entryDx=0;entryDy=0;" parent="1" source="IoRThD0YpW3yYK1RBAOI-170" target="IoRThD0YpW3yYK1RBAOI-176" edge="1">
          <mxGeometry relative="1" as="geometry" />
        </mxCell>
        <mxCell id="IoRThD0YpW3yYK1RBAOI-170" value="Crusher" style="rounded=1;whiteSpace=wrap;html=1;" parent="1" vertex="1">
          <mxGeometry x="202" y="1971" width="120" height="60" as="geometry" />
        </mxCell>
        <mxCell id="IoRThD0YpW3yYK1RBAOI-173" value="&lt;h1&gt;Smelted&lt;/h1&gt;" style="text;html=1;strokeColor=none;fillColor=none;spacing=5;spacingTop=-20;whiteSpace=wrap;overflow=hidden;rounded=0;" parent="1" vertex="1">
          <mxGeometry x="362.75" y="1810" width="106.5" height="40" as="geometry" />
        </mxCell>
        <mxCell id="IoRThD0YpW3yYK1RBAOI-174" value="&lt;h1&gt;Smelted&lt;/h1&gt;" style="text;html=1;strokeColor=none;fillColor=none;spacing=5;spacingTop=-20;whiteSpace=wrap;overflow=hidden;rounded=0;" parent="1" vertex="1">
          <mxGeometry x="362.75" y="1930" width="106.5" height="40" as="geometry" />
        </mxCell>
        <mxCell id="IoRThD0YpW3yYK1RBAOI-177" style="edgeStyle=orthogonalEdgeStyle;rounded=0;orthogonalLoop=1;jettySize=auto;html=1;exitX=1;exitY=0.5;exitDx=0;exitDy=0;entryX=0;entryY=0.5;entryDx=0;entryDy=0;" parent="1" source="IoRThD0YpW3yYK1RBAOI-175" target="IoRThD0YpW3yYK1RBAOI-164" edge="1">
          <mxGeometry relative="1" as="geometry" />
        </mxCell>
        <mxCell id="IoRThD0YpW3yYK1RBAOI-175" value="Crushed Trona" style="rounded=0;whiteSpace=wrap;html=1;" parent="1" vertex="1">
          <mxGeometry x="357" y="1850" width="120" height="60" as="geometry" />
        </mxCell>
        <mxCell id="IoRThD0YpW3yYK1RBAOI-178" style="edgeStyle=orthogonalEdgeStyle;rounded=0;orthogonalLoop=1;jettySize=auto;html=1;exitX=1;exitY=0.5;exitDx=0;exitDy=0;entryX=0;entryY=0.5;entryDx=0;entryDy=0;" parent="1" source="IoRThD0YpW3yYK1RBAOI-176" target="IoRThD0YpW3yYK1RBAOI-165" edge="1">
          <mxGeometry relative="1" as="geometry" />
        </mxCell>
        <mxCell id="IoRThD0YpW3yYK1RBAOI-176" value="Crushed Nahcolite" style="rounded=0;whiteSpace=wrap;html=1;" parent="1" vertex="1">
          <mxGeometry x="356" y="1971" width="120" height="60" as="geometry" />
        </mxCell>
        <mxCell id="IoRThD0YpW3yYK1RBAOI-184" style="edgeStyle=orthogonalEdgeStyle;rounded=0;orthogonalLoop=1;jettySize=auto;html=1;exitX=1;exitY=0.5;exitDx=0;exitDy=0;entryX=0;entryY=0.5;entryDx=0;entryDy=0;" parent="1" source="IoRThD0YpW3yYK1RBAOI-182" target="IoRThD0YpW3yYK1RBAOI-170" edge="1">
          <mxGeometry relative="1" as="geometry" />
        </mxCell>
        <mxCell id="IoRThD0YpW3yYK1RBAOI-182" value="Nahcolite Ore" style="rounded=0;whiteSpace=wrap;html=1;" parent="1" vertex="1">
          <mxGeometry x="42" y="1971" width="120" height="60" as="geometry" />
        </mxCell>
        <mxCell id="IoRThD0YpW3yYK1RBAOI-185" style="edgeStyle=orthogonalEdgeStyle;rounded=0;orthogonalLoop=1;jettySize=auto;html=1;exitX=1;exitY=0.5;exitDx=0;exitDy=0;entryX=0;entryY=0.5;entryDx=0;entryDy=0;" parent="1" source="IoRThD0YpW3yYK1RBAOI-183" target="IoRThD0YpW3yYK1RBAOI-168" edge="1">
          <mxGeometry relative="1" as="geometry" />
        </mxCell>
        <mxCell id="IoRThD0YpW3yYK1RBAOI-183" value="Trona Ore" style="rounded=0;whiteSpace=wrap;html=1;" parent="1" vertex="1">
          <mxGeometry x="42" y="1850" width="120" height="60" as="geometry" />
        </mxCell>
        <mxCell id="IoRThD0YpW3yYK1RBAOI-186" value="Ammonia" style="rounded=1;whiteSpace=wrap;html=1;" parent="1" vertex="1">
          <mxGeometry x="1003" y="2120" width="120" height="60" as="geometry" />
        </mxCell>
        <mxCell id="IoRThD0YpW3yYK1RBAOI-192" style="edgeStyle=orthogonalEdgeStyle;rounded=0;orthogonalLoop=1;jettySize=auto;html=1;exitX=1;exitY=0.5;exitDx=0;exitDy=0;entryX=0;entryY=0.5;entryDx=0;entryDy=0;" parent="1" source="IoRThD0YpW3yYK1RBAOI-188" target="IoRThD0YpW3yYK1RBAOI-190" edge="1">
          <mxGeometry relative="1" as="geometry" />
        </mxCell>
        <mxCell id="IoRThD0YpW3yYK1RBAOI-188" value="Impure Ammonia" style="rounded=0;whiteSpace=wrap;html=1;" parent="1" vertex="1">
          <mxGeometry x="683" y="2120" width="120" height="60" as="geometry" />
        </mxCell>
        <mxCell id="IoRThD0YpW3yYK1RBAOI-191" style="edgeStyle=orthogonalEdgeStyle;rounded=0;orthogonalLoop=1;jettySize=auto;html=1;exitX=1;exitY=0.5;exitDx=0;exitDy=0;entryX=0;entryY=0.5;entryDx=0;entryDy=0;" parent="1" source="IoRThD0YpW3yYK1RBAOI-190" target="IoRThD0YpW3yYK1RBAOI-186" edge="1">
          <mxGeometry relative="1" as="geometry" />
        </mxCell>
        <mxCell id="IoRThD0YpW3yYK1RBAOI-190" value="Purification Chamber" style="rounded=1;whiteSpace=wrap;html=1;" parent="1" vertex="1">
          <mxGeometry x="843" y="2120" width="120" height="60" as="geometry" />
        </mxCell>
        <mxCell id="IoRThD0YpW3yYK1RBAOI-194" style="edgeStyle=orthogonalEdgeStyle;rounded=0;orthogonalLoop=1;jettySize=auto;html=1;exitX=1;exitY=0.5;exitDx=0;exitDy=0;entryX=0;entryY=0.5;entryDx=0;entryDy=0;" parent="1" source="IoRThD0YpW3yYK1RBAOI-193" target="IoRThD0YpW3yYK1RBAOI-188" edge="1">
          <mxGeometry relative="1" as="geometry" />
        </mxCell>
        <mxCell id="IoRThD0YpW3yYK1RBAOI-193" value="Nitrogen Gas" style="rounded=0;whiteSpace=wrap;html=1;" parent="1" vertex="1">
          <mxGeometry x="523" y="2060" width="120" height="60" as="geometry" />
        </mxCell>
        <mxCell id="IoRThD0YpW3yYK1RBAOI-196" style="edgeStyle=orthogonalEdgeStyle;rounded=0;orthogonalLoop=1;jettySize=auto;html=1;exitX=1;exitY=0.5;exitDx=0;exitDy=0;entryX=0;entryY=0.5;entryDx=0;entryDy=0;" parent="1" source="IoRThD0YpW3yYK1RBAOI-195" target="IoRThD0YpW3yYK1RBAOI-188" edge="1">
          <mxGeometry relative="1" as="geometry">
            <Array as="points">
              <mxPoint x="663" y="2210" />
              <mxPoint x="663" y="2150" />
            </Array>
          </mxGeometry>
        </mxCell>
        <mxCell id="IoRThD0YpW3yYK1RBAOI-195" value="Liquid Ammonia" style="rounded=0;whiteSpace=wrap;html=1;" parent="1" vertex="1">
          <mxGeometry x="525" y="2180" width="120" height="60" as="geometry" />
        </mxCell>
        <mxCell id="IoRThD0YpW3yYK1RBAOI-200" style="edgeStyle=orthogonalEdgeStyle;rounded=0;orthogonalLoop=1;jettySize=auto;html=1;exitX=1;exitY=0.5;exitDx=0;exitDy=0;entryX=0;entryY=0.5;entryDx=0;entryDy=0;" parent="1" source="IoRThD0YpW3yYK1RBAOI-197" target="IoRThD0YpW3yYK1RBAOI-195" edge="1">
          <mxGeometry relative="1" as="geometry" />
        </mxCell>
        <mxCell id="IoRThD0YpW3yYK1RBAOI-207" style="edgeStyle=orthogonalEdgeStyle;rounded=0;orthogonalLoop=1;jettySize=auto;html=1;exitX=1;exitY=0.5;exitDx=0;exitDy=0;entryX=0;entryY=0.5;entryDx=0;entryDy=0;" parent="1" source="IoRThD0YpW3yYK1RBAOI-197" target="IoRThD0YpW3yYK1RBAOI-201" edge="1">
          <mxGeometry relative="1" as="geometry" />
        </mxCell>
        <mxCell id="IoRThD0YpW3yYK1RBAOI-197" value="Distillation Unit" style="rounded=1;whiteSpace=wrap;html=1;" parent="1" vertex="1">
          <mxGeometry x="363" y="2240" width="120" height="60" as="geometry" />
        </mxCell>
        <mxCell id="IoRThD0YpW3yYK1RBAOI-201" value="Water" style="rounded=0;whiteSpace=wrap;html=1;" parent="1" vertex="1">
          <mxGeometry x="525" y="2300" width="120" height="60" as="geometry" />
        </mxCell>
        <mxCell id="IoRThD0YpW3yYK1RBAOI-204" style="edgeStyle=orthogonalEdgeStyle;rounded=0;orthogonalLoop=1;jettySize=auto;html=1;exitX=1;exitY=0.5;exitDx=0;exitDy=0;entryX=0;entryY=0.5;entryDx=0;entryDy=0;" parent="1" source="IoRThD0YpW3yYK1RBAOI-203" target="IoRThD0YpW3yYK1RBAOI-197" edge="1">
          <mxGeometry relative="1" as="geometry" />
        </mxCell>
        <mxCell id="IoRThD0YpW3yYK1RBAOI-203" value="Diluted Ammonia" style="rounded=0;whiteSpace=wrap;html=1;" parent="1" vertex="1">
          <mxGeometry x="202" y="2240" width="120" height="60" as="geometry" />
        </mxCell>
        <mxCell id="IoRThD0YpW3yYK1RBAOI-206" style="edgeStyle=orthogonalEdgeStyle;rounded=0;orthogonalLoop=1;jettySize=auto;html=1;exitX=1;exitY=0.5;exitDx=0;exitDy=0;entryX=0;entryY=0.5;entryDx=0;entryDy=0;" parent="1" source="IoRThD0YpW3yYK1RBAOI-205" target="IoRThD0YpW3yYK1RBAOI-203" edge="1">
          <mxGeometry relative="1" as="geometry" />
        </mxCell>
        <mxCell id="IoRThD0YpW3yYK1RBAOI-205" value="Steam Reformation" style="rounded=1;whiteSpace=wrap;html=1;" parent="1" vertex="1">
          <mxGeometry x="42" y="2240" width="120" height="60" as="geometry" />
        </mxCell>
        <mxCell id="IoRThD0YpW3yYK1RBAOI-208" value="Carbon Dioxide" style="rounded=1;whiteSpace=wrap;html=1;" parent="1" vertex="1">
          <mxGeometry x="672" y="2490" width="120" height="60" as="geometry" />
        </mxCell>
        <mxCell id="IoRThD0YpW3yYK1RBAOI-214" style="edgeStyle=orthogonalEdgeStyle;rounded=0;orthogonalLoop=1;jettySize=auto;html=1;exitX=1;exitY=0.5;exitDx=0;exitDy=0;entryX=0.5;entryY=0;entryDx=0;entryDy=0;" parent="1" source="IoRThD0YpW3yYK1RBAOI-209" target="IoRThD0YpW3yYK1RBAOI-208" edge="1">
          <mxGeometry relative="1" as="geometry" />
        </mxCell>
        <mxCell id="IoRThD0YpW3yYK1RBAOI-209" value="Burning Fossil Fuels" style="rounded=1;whiteSpace=wrap;html=1;" parent="1" vertex="1">
          <mxGeometry x="509" y="2401" width="120" height="60" as="geometry" />
        </mxCell>
        <mxCell id="IoRThD0YpW3yYK1RBAOI-213" style="edgeStyle=orthogonalEdgeStyle;rounded=0;orthogonalLoop=1;jettySize=auto;html=1;exitX=1;exitY=0.5;exitDx=0;exitDy=0;entryX=0;entryY=0.5;entryDx=0;entryDy=0;" parent="1" source="IoRThD0YpW3yYK1RBAOI-210" target="IoRThD0YpW3yYK1RBAOI-208" edge="1">
          <mxGeometry relative="1" as="geometry" />
        </mxCell>
        <mxCell id="IoRThD0YpW3yYK1RBAOI-210" value="Fermentation of Sugar" style="rounded=1;whiteSpace=wrap;html=1;" parent="1" vertex="1">
          <mxGeometry x="509" y="2490" width="120" height="60" as="geometry" />
        </mxCell>
        <mxCell id="IoRThD0YpW3yYK1RBAOI-212" style="edgeStyle=orthogonalEdgeStyle;rounded=0;orthogonalLoop=1;jettySize=auto;html=1;exitX=1;exitY=0.5;exitDx=0;exitDy=0;entryX=0.25;entryY=1;entryDx=0;entryDy=0;" parent="1" source="IoRThD0YpW3yYK1RBAOI-211" target="IoRThD0YpW3yYK1RBAOI-208" edge="1">
          <mxGeometry relative="1" as="geometry" />
        </mxCell>
        <mxCell id="IoRThD0YpW3yYK1RBAOI-211" value="Adsorbed" style="rounded=1;whiteSpace=wrap;html=1;" parent="1" vertex="1">
          <mxGeometry x="509" y="2611" width="120" height="60" as="geometry" />
        </mxCell>
        <mxCell id="IoRThD0YpW3yYK1RBAOI-218" style="edgeStyle=orthogonalEdgeStyle;rounded=0;orthogonalLoop=1;jettySize=auto;html=1;exitX=1;exitY=0.5;exitDx=0;exitDy=0;entryX=0.5;entryY=0;entryDx=0;entryDy=0;" parent="1" source="IoRThD0YpW3yYK1RBAOI-215" target="IoRThD0YpW3yYK1RBAOI-211" edge="1">
          <mxGeometry relative="1" as="geometry" />
        </mxCell>
        <mxCell id="IoRThD0YpW3yYK1RBAOI-215" value="Activated Charcoal" style="rounded=1;whiteSpace=wrap;html=1;" parent="1" vertex="1">
          <mxGeometry x="348" y="2551" width="120" height="60" as="geometry" />
        </mxCell>
        <mxCell id="IoRThD0YpW3yYK1RBAOI-217" style="edgeStyle=orthogonalEdgeStyle;rounded=0;orthogonalLoop=1;jettySize=auto;html=1;exitX=1;exitY=0.5;exitDx=0;exitDy=0;entryX=0.5;entryY=1;entryDx=0;entryDy=0;" parent="1" source="IoRThD0YpW3yYK1RBAOI-216" target="IoRThD0YpW3yYK1RBAOI-211" edge="1">
          <mxGeometry relative="1" as="geometry" />
        </mxCell>
        <mxCell id="IoRThD0YpW3yYK1RBAOI-216" value="Zeolite" style="rounded=1;whiteSpace=wrap;html=1;" parent="1" vertex="1">
          <mxGeometry x="348" y="2661" width="120" height="60" as="geometry" />
        </mxCell>
        <mxCell id="IoRThD0YpW3yYK1RBAOI-220" style="edgeStyle=orthogonalEdgeStyle;rounded=0;orthogonalLoop=1;jettySize=auto;html=1;exitX=1;exitY=0.5;exitDx=0;exitDy=0;entryX=0.5;entryY=1;entryDx=0;entryDy=0;" parent="1" source="IoRThD0YpW3yYK1RBAOI-219" target="IoRThD0YpW3yYK1RBAOI-208" edge="1">
          <mxGeometry relative="1" as="geometry" />
        </mxCell>
        <mxCell id="IoRThD0YpW3yYK1RBAOI-219" value="Dissolved" style="rounded=1;whiteSpace=wrap;html=1;" parent="1" vertex="1">
          <mxGeometry x="509" y="2811" width="120" height="60" as="geometry" />
        </mxCell>
        <mxCell id="IoRThD0YpW3yYK1RBAOI-222" style="edgeStyle=orthogonalEdgeStyle;rounded=0;orthogonalLoop=1;jettySize=auto;html=1;exitX=1;exitY=0.5;exitDx=0;exitDy=0;entryX=0.75;entryY=1;entryDx=0;entryDy=0;" parent="1" source="IoRThD0YpW3yYK1RBAOI-221" target="IoRThD0YpW3yYK1RBAOI-208" edge="1">
          <mxGeometry relative="1" as="geometry" />
        </mxCell>
        <mxCell id="IoRThD0YpW3yYK1RBAOI-221" value="Heated" style="rounded=1;whiteSpace=wrap;html=1;" parent="1" vertex="1">
          <mxGeometry x="509" y="2961" width="120" height="60" as="geometry" />
        </mxCell>
        <mxCell id="IoRThD0YpW3yYK1RBAOI-224" style="edgeStyle=orthogonalEdgeStyle;rounded=0;orthogonalLoop=1;jettySize=auto;html=1;exitX=1;exitY=0.5;exitDx=0;exitDy=0;entryX=0.5;entryY=0;entryDx=0;entryDy=0;" parent="1" source="IoRThD0YpW3yYK1RBAOI-223" target="IoRThD0YpW3yYK1RBAOI-219" edge="1">
          <mxGeometry relative="1" as="geometry" />
        </mxCell>
        <mxCell id="IoRThD0YpW3yYK1RBAOI-223" value="Water" style="rounded=0;whiteSpace=wrap;html=1;" parent="1" vertex="1">
          <mxGeometry x="349" y="2751" width="120" height="60" as="geometry" />
        </mxCell>
        <mxCell id="IoRThD0YpW3yYK1RBAOI-226" style="edgeStyle=orthogonalEdgeStyle;rounded=0;orthogonalLoop=1;jettySize=auto;html=1;exitX=1;exitY=0.5;exitDx=0;exitDy=0;entryX=0.5;entryY=1;entryDx=0;entryDy=0;" parent="1" source="IoRThD0YpW3yYK1RBAOI-225" target="IoRThD0YpW3yYK1RBAOI-219" edge="1">
          <mxGeometry relative="1" as="geometry" />
        </mxCell>
        <mxCell id="IoRThD0YpW3yYK1RBAOI-225" value="Monoethanolamine" style="rounded=1;whiteSpace=wrap;html=1;" parent="1" vertex="1">
          <mxGeometry x="348" y="2871" width="120" height="60" as="geometry" />
        </mxCell>
        <mxCell id="IoRThD0YpW3yYK1RBAOI-228" style="edgeStyle=orthogonalEdgeStyle;rounded=0;orthogonalLoop=1;jettySize=auto;html=1;exitX=1;exitY=0.5;exitDx=0;exitDy=0;entryX=0;entryY=0.5;entryDx=0;entryDy=0;" parent="1" source="IoRThD0YpW3yYK1RBAOI-227" target="IoRThD0YpW3yYK1RBAOI-221" edge="1">
          <mxGeometry relative="1" as="geometry" />
        </mxCell>
        <mxCell id="IoRThD0YpW3yYK1RBAOI-227" value="Liquid Air" style="rounded=0;whiteSpace=wrap;html=1;" parent="1" vertex="1">
          <mxGeometry x="352" y="2961" width="120" height="60" as="geometry" />
        </mxCell>
        <mxCell id="IoRThD0YpW3yYK1RBAOI-230" style="edgeStyle=orthogonalEdgeStyle;rounded=0;orthogonalLoop=1;jettySize=auto;html=1;exitX=1;exitY=0.5;exitDx=0;exitDy=0;entryX=0;entryY=0.5;entryDx=0;entryDy=0;" parent="1" source="IoRThD0YpW3yYK1RBAOI-229" target="IoRThD0YpW3yYK1RBAOI-227" edge="1">
          <mxGeometry relative="1" as="geometry" />
        </mxCell>
        <mxCell id="IoRThD0YpW3yYK1RBAOI-229" value="Air Compressor" style="rounded=1;whiteSpace=wrap;html=1;" parent="1" vertex="1">
          <mxGeometry x="194" y="2961" width="120" height="60" as="geometry" />
        </mxCell>
        <mxCell id="IoRThD0YpW3yYK1RBAOI-232" style="edgeStyle=orthogonalEdgeStyle;rounded=0;orthogonalLoop=1;jettySize=auto;html=1;exitX=1;exitY=0.5;exitDx=0;exitDy=0;entryX=0;entryY=0.5;entryDx=0;entryDy=0;" parent="1" source="IoRThD0YpW3yYK1RBAOI-231" target="IoRThD0YpW3yYK1RBAOI-229" edge="1">
          <mxGeometry relative="1" as="geometry" />
        </mxCell>
        <mxCell id="IoRThD0YpW3yYK1RBAOI-231" value="Air" style="rounded=0;whiteSpace=wrap;html=1;" parent="1" vertex="1">
          <mxGeometry x="39" y="2961" width="120" height="60" as="geometry" />
        </mxCell>
        <mxCell id="IoRThD0YpW3yYK1RBAOI-233" value="Activated Charcoal" style="rounded=1;whiteSpace=wrap;html=1;" parent="1" vertex="1">
          <mxGeometry x="509" y="3340" width="120" height="60" as="geometry" />
        </mxCell>
        <mxCell id="IoRThD0YpW3yYK1RBAOI-241" style="edgeStyle=orthogonalEdgeStyle;rounded=0;orthogonalLoop=1;jettySize=auto;html=1;exitX=1;exitY=0.5;exitDx=0;exitDy=0;entryX=0.5;entryY=0;entryDx=0;entryDy=0;" parent="1" source="IoRThD0YpW3yYK1RBAOI-234" target="IoRThD0YpW3yYK1RBAOI-233" edge="1">
          <mxGeometry relative="1" as="geometry" />
        </mxCell>
        <mxCell id="IoRThD0YpW3yYK1RBAOI-234" value="Steam Activation" style="rounded=1;whiteSpace=wrap;html=1;" parent="1" vertex="1">
          <mxGeometry x="355" y="3120" width="120" height="60" as="geometry" />
        </mxCell>
        <mxCell id="IoRThD0YpW3yYK1RBAOI-238" style="edgeStyle=orthogonalEdgeStyle;rounded=0;orthogonalLoop=1;jettySize=auto;html=1;exitX=1;exitY=0.5;exitDx=0;exitDy=0;entryX=0;entryY=0.5;entryDx=0;entryDy=0;" parent="1" source="IoRThD0YpW3yYK1RBAOI-237" target="IoRThD0YpW3yYK1RBAOI-234" edge="1">
          <mxGeometry relative="1" as="geometry" />
        </mxCell>
        <mxCell id="IoRThD0YpW3yYK1RBAOI-237" value="Steam" style="rounded=1;whiteSpace=wrap;html=1;" parent="1" vertex="1">
          <mxGeometry x="186" y="3060" width="120" height="60" as="geometry" />
        </mxCell>
        <mxCell id="IoRThD0YpW3yYK1RBAOI-240" style="edgeStyle=orthogonalEdgeStyle;rounded=0;orthogonalLoop=1;jettySize=auto;html=1;exitX=1;exitY=0.5;exitDx=0;exitDy=0;entryX=0;entryY=0.5;entryDx=0;entryDy=0;" parent="1" source="IoRThD0YpW3yYK1RBAOI-239" target="IoRThD0YpW3yYK1RBAOI-234" edge="1">
          <mxGeometry relative="1" as="geometry" />
        </mxCell>
        <mxCell id="IoRThD0YpW3yYK1RBAOI-239" value="Charcoal" style="rounded=0;whiteSpace=wrap;html=1;" parent="1" vertex="1">
          <mxGeometry x="186" y="3180" width="120" height="60" as="geometry" />
        </mxCell>
        <mxCell id="IoRThD0YpW3yYK1RBAOI-245" style="edgeStyle=orthogonalEdgeStyle;rounded=0;orthogonalLoop=1;jettySize=auto;html=1;exitX=1;exitY=0.5;exitDx=0;exitDy=0;entryX=0;entryY=0.5;entryDx=0;entryDy=0;" parent="1" source="IoRThD0YpW3yYK1RBAOI-242" target="IoRThD0YpW3yYK1RBAOI-233" edge="1">
          <mxGeometry relative="1" as="geometry" />
        </mxCell>
        <mxCell id="IoRThD0YpW3yYK1RBAOI-242" value="Chemical Activation" style="rounded=1;whiteSpace=wrap;html=1;" parent="1" vertex="1">
          <mxGeometry x="362" y="3340" width="120" height="60" as="geometry" />
        </mxCell>
        <mxCell id="IoRThD0YpW3yYK1RBAOI-244" style="edgeStyle=orthogonalEdgeStyle;rounded=0;orthogonalLoop=1;jettySize=auto;html=1;exitX=1;exitY=0.5;exitDx=0;exitDy=0;entryX=0;entryY=0.5;entryDx=0;entryDy=0;" parent="1" source="IoRThD0YpW3yYK1RBAOI-243" target="IoRThD0YpW3yYK1RBAOI-242" edge="1">
          <mxGeometry relative="1" as="geometry" />
        </mxCell>
        <mxCell id="IoRThD0YpW3yYK1RBAOI-243" value="Charcoal" style="rounded=0;whiteSpace=wrap;html=1;" parent="1" vertex="1">
          <mxGeometry x="190" y="3300" width="120" height="60" as="geometry" />
        </mxCell>
        <mxCell id="IoRThD0YpW3yYK1RBAOI-247" style="edgeStyle=orthogonalEdgeStyle;rounded=0;orthogonalLoop=1;jettySize=auto;html=1;exitX=1;exitY=0.5;exitDx=0;exitDy=0;entryX=0;entryY=0.5;entryDx=0;entryDy=0;" parent="1" source="IoRThD0YpW3yYK1RBAOI-246" target="IoRThD0YpW3yYK1RBAOI-242" edge="1">
          <mxGeometry relative="1" as="geometry" />
        </mxCell>
        <mxCell id="IoRThD0YpW3yYK1RBAOI-246" value="Base" style="rounded=1;whiteSpace=wrap;html=1;" parent="1" vertex="1">
          <mxGeometry x="190" y="3409" width="120" height="60" as="geometry" />
        </mxCell>
        <mxCell id="IoRThD0YpW3yYK1RBAOI-252" style="edgeStyle=orthogonalEdgeStyle;rounded=0;orthogonalLoop=1;jettySize=auto;html=1;exitX=1;exitY=0.5;exitDx=0;exitDy=0;entryX=0.5;entryY=0;entryDx=0;entryDy=0;" parent="1" source="IoRThD0YpW3yYK1RBAOI-251" target="IoRThD0YpW3yYK1RBAOI-246" edge="1">
          <mxGeometry relative="1" as="geometry" />
        </mxCell>
        <mxCell id="IoRThD0YpW3yYK1RBAOI-251" value="Phosphoric Acid" style="rounded=1;whiteSpace=wrap;html=1;" parent="1" vertex="1">
          <mxGeometry x="39" y="3350" width="120" height="60" as="geometry" />
        </mxCell>
        <mxCell id="IoRThD0YpW3yYK1RBAOI-254" style="edgeStyle=orthogonalEdgeStyle;rounded=0;orthogonalLoop=1;jettySize=auto;html=1;exitX=1;exitY=0.5;exitDx=0;exitDy=0;entryX=0.5;entryY=1;entryDx=0;entryDy=0;" parent="1" source="IoRThD0YpW3yYK1RBAOI-253" target="IoRThD0YpW3yYK1RBAOI-246" edge="1">
          <mxGeometry relative="1" as="geometry" />
        </mxCell>
        <mxCell id="IoRThD0YpW3yYK1RBAOI-253" value="Zinc Chloride" style="rounded=1;whiteSpace=wrap;html=1;" parent="1" vertex="1">
          <mxGeometry x="39" y="3469" width="120" height="60" as="geometry" />
        </mxCell>
        <mxCell id="IoRThD0YpW3yYK1RBAOI-256" style="edgeStyle=orthogonalEdgeStyle;rounded=0;orthogonalLoop=1;jettySize=auto;html=1;exitX=1;exitY=0.5;exitDx=0;exitDy=0;entryX=0.5;entryY=1;entryDx=0;entryDy=0;" parent="1" source="IoRThD0YpW3yYK1RBAOI-255" target="IoRThD0YpW3yYK1RBAOI-233" edge="1">
          <mxGeometry relative="1" as="geometry" />
        </mxCell>
        <mxCell id="IoRThD0YpW3yYK1RBAOI-255" value="High Temperature Activation" style="rounded=1;whiteSpace=wrap;html=1;" parent="1" vertex="1">
          <mxGeometry x="351" y="3600" width="120" height="60" as="geometry" />
        </mxCell>
        <mxCell id="IoRThD0YpW3yYK1RBAOI-258" style="edgeStyle=orthogonalEdgeStyle;rounded=0;orthogonalLoop=1;jettySize=auto;html=1;exitX=1;exitY=0.5;exitDx=0;exitDy=0;entryX=0;entryY=0.5;entryDx=0;entryDy=0;" parent="1" source="IoRThD0YpW3yYK1RBAOI-257" target="IoRThD0YpW3yYK1RBAOI-255" edge="1">
          <mxGeometry relative="1" as="geometry" />
        </mxCell>
        <mxCell id="IoRThD0YpW3yYK1RBAOI-257" value="Charcoal" style="rounded=0;whiteSpace=wrap;html=1;" parent="1" vertex="1">
          <mxGeometry x="193" y="3550" width="120" height="60" as="geometry" />
        </mxCell>
        <mxCell id="IoRThD0YpW3yYK1RBAOI-260" style="edgeStyle=orthogonalEdgeStyle;rounded=0;orthogonalLoop=1;jettySize=auto;html=1;exitX=1;exitY=0.5;exitDx=0;exitDy=0;entryX=0;entryY=0.5;entryDx=0;entryDy=0;" parent="1" source="IoRThD0YpW3yYK1RBAOI-259" target="IoRThD0YpW3yYK1RBAOI-255" edge="1">
          <mxGeometry relative="1" as="geometry" />
        </mxCell>
        <mxCell id="IoRThD0YpW3yYK1RBAOI-259" value="Oxygen Gas" style="rounded=0;whiteSpace=wrap;html=1;" parent="1" vertex="1">
          <mxGeometry x="193" y="3650" width="120" height="60" as="geometry" />
        </mxCell>
        <mxCell id="IoRThD0YpW3yYK1RBAOI-261" value="Phosphoric Acid" style="rounded=1;whiteSpace=wrap;html=1;" parent="1" vertex="1">
          <mxGeometry x="684" y="3800" width="120" height="60" as="geometry" />
        </mxCell>
        <mxCell id="IoRThD0YpW3yYK1RBAOI-264" style="edgeStyle=orthogonalEdgeStyle;rounded=0;orthogonalLoop=1;jettySize=auto;html=1;exitX=1;exitY=0.5;exitDx=0;exitDy=0;entryX=0;entryY=0.5;entryDx=0;entryDy=0;" parent="1" source="IoRThD0YpW3yYK1RBAOI-262" target="IoRThD0YpW3yYK1RBAOI-263" edge="1">
          <mxGeometry relative="1" as="geometry" />
        </mxCell>
        <mxCell id="IoRThD0YpW3yYK1RBAOI-262" value="Impure Phosphoric Acid" style="rounded=0;whiteSpace=wrap;html=1;" parent="1" vertex="1">
          <mxGeometry x="360" y="3800" width="120" height="60" as="geometry" />
        </mxCell>
        <mxCell id="IoRThD0YpW3yYK1RBAOI-265" style="edgeStyle=orthogonalEdgeStyle;rounded=0;orthogonalLoop=1;jettySize=auto;html=1;exitX=1;exitY=0.5;exitDx=0;exitDy=0;entryX=0;entryY=0.5;entryDx=0;entryDy=0;" parent="1" source="IoRThD0YpW3yYK1RBAOI-263" target="IoRThD0YpW3yYK1RBAOI-261" edge="1">
          <mxGeometry relative="1" as="geometry" />
        </mxCell>
        <mxCell id="IoRThD0YpW3yYK1RBAOI-263" value="Purification Chamber" style="rounded=1;whiteSpace=wrap;html=1;" parent="1" vertex="1">
          <mxGeometry x="521" y="3800" width="120" height="60" as="geometry" />
        </mxCell>
        <mxCell id="IoRThD0YpW3yYK1RBAOI-267" style="edgeStyle=orthogonalEdgeStyle;rounded=0;orthogonalLoop=1;jettySize=auto;html=1;exitX=1;exitY=0.5;exitDx=0;exitDy=0;entryX=0;entryY=0.5;entryDx=0;entryDy=0;" parent="1" source="IoRThD0YpW3yYK1RBAOI-266" target="IoRThD0YpW3yYK1RBAOI-262" edge="1">
          <mxGeometry relative="1" as="geometry" />
        </mxCell>
        <mxCell id="IoRThD0YpW3yYK1RBAOI-266" value="Centrifuge" style="rounded=1;whiteSpace=wrap;html=1;" parent="1" vertex="1">
          <mxGeometry x="202" y="3800" width="120" height="60" as="geometry" />
        </mxCell>
        <mxCell id="IoRThD0YpW3yYK1RBAOI-269" style="edgeStyle=orthogonalEdgeStyle;rounded=0;orthogonalLoop=1;jettySize=auto;html=1;exitX=1;exitY=0.5;exitDx=0;exitDy=0;entryX=0;entryY=0.5;entryDx=0;entryDy=0;" parent="1" source="IoRThD0YpW3yYK1RBAOI-268" target="IoRThD0YpW3yYK1RBAOI-266" edge="1">
          <mxGeometry relative="1" as="geometry" />
        </mxCell>
        <mxCell id="IoRThD0YpW3yYK1RBAOI-268" value="Sulfuric Acid" style="rounded=1;whiteSpace=wrap;html=1;" parent="1" vertex="1">
          <mxGeometry x="42" y="3740" width="120" height="60" as="geometry" />
        </mxCell>
        <mxCell id="IoRThD0YpW3yYK1RBAOI-271" style="edgeStyle=orthogonalEdgeStyle;rounded=0;orthogonalLoop=1;jettySize=auto;html=1;exitX=1;exitY=0.5;exitDx=0;exitDy=0;entryX=0;entryY=0.5;entryDx=0;entryDy=0;" parent="1" source="IoRThD0YpW3yYK1RBAOI-270" target="IoRThD0YpW3yYK1RBAOI-266" edge="1">
          <mxGeometry relative="1" as="geometry" />
        </mxCell>
        <mxCell id="IoRThD0YpW3yYK1RBAOI-270" value="Phosphate Ore" style="rounded=0;whiteSpace=wrap;html=1;" parent="1" vertex="1">
          <mxGeometry x="42" y="3860" width="120" height="60" as="geometry" />
        </mxCell>
        <mxCell id="IoRThD0YpW3yYK1RBAOI-272" value="Zinc Chloride" style="rounded=1;whiteSpace=wrap;html=1;" parent="1" vertex="1">
          <mxGeometry x="279.5" y="3960" width="120" height="60" as="geometry" />
        </mxCell>
        <mxCell id="IoRThD0YpW3yYK1RBAOI-275" value="Hydrogen Gas" style="rounded=0;whiteSpace=wrap;html=1;" parent="1" vertex="1">
          <mxGeometry x="276" y="4060" width="120" height="60" as="geometry" />
        </mxCell>
        <mxCell id="IoRThD0YpW3yYK1RBAOI-282" style="edgeStyle=orthogonalEdgeStyle;rounded=0;orthogonalLoop=1;jettySize=auto;html=1;exitX=1;exitY=0.5;exitDx=0;exitDy=0;entryX=0;entryY=0.5;entryDx=0;entryDy=0;" parent="1" source="IoRThD0YpW3yYK1RBAOI-276" target="IoRThD0YpW3yYK1RBAOI-272" edge="1">
          <mxGeometry relative="1" as="geometry" />
        </mxCell>
        <mxCell id="ol5aysZtWkvlukl07h3u-1" style="edgeStyle=orthogonalEdgeStyle;rounded=0;orthogonalLoop=1;jettySize=auto;html=1;exitX=1;exitY=0.5;exitDx=0;exitDy=0;entryX=0;entryY=0.5;entryDx=0;entryDy=0;" edge="1" parent="1" source="IoRThD0YpW3yYK1RBAOI-276" target="IoRThD0YpW3yYK1RBAOI-275">
          <mxGeometry relative="1" as="geometry" />
        </mxCell>
        <mxCell id="IoRThD0YpW3yYK1RBAOI-276" value="Zinc" style="rounded=0;whiteSpace=wrap;html=1;" parent="1" vertex="1">
          <mxGeometry x="40" y="3960" width="120" height="60" as="geometry" />
        </mxCell>
        <mxCell id="IoRThD0YpW3yYK1RBAOI-283" style="edgeStyle=orthogonalEdgeStyle;rounded=0;orthogonalLoop=1;jettySize=auto;html=1;exitX=1;exitY=0.5;exitDx=0;exitDy=0;entryX=0;entryY=0.5;entryDx=0;entryDy=0;" parent="1" source="IoRThD0YpW3yYK1RBAOI-277" target="IoRThD0YpW3yYK1RBAOI-275" edge="1">
          <mxGeometry relative="1" as="geometry" />
        </mxCell>
        <mxCell id="ol5aysZtWkvlukl07h3u-2" style="edgeStyle=orthogonalEdgeStyle;rounded=0;orthogonalLoop=1;jettySize=auto;html=1;exitX=1;exitY=0.5;exitDx=0;exitDy=0;entryX=0;entryY=0.5;entryDx=0;entryDy=0;" edge="1" parent="1" source="IoRThD0YpW3yYK1RBAOI-277" target="IoRThD0YpW3yYK1RBAOI-272">
          <mxGeometry relative="1" as="geometry" />
        </mxCell>
        <mxCell id="IoRThD0YpW3yYK1RBAOI-277" value="Hydrochloric Acid" style="rounded=1;whiteSpace=wrap;html=1;" parent="1" vertex="1">
          <mxGeometry x="40" y="4060" width="120" height="60" as="geometry" />
        </mxCell>
        <mxCell id="IoRThD0YpW3yYK1RBAOI-285" value="Hydrochloric Acid" style="rounded=1;whiteSpace=wrap;html=1;" parent="1" vertex="1">
          <mxGeometry x="369" y="4200" width="120" height="60" as="geometry" />
        </mxCell>
        <mxCell id="IoRThD0YpW3yYK1RBAOI-289" style="edgeStyle=orthogonalEdgeStyle;rounded=0;orthogonalLoop=1;jettySize=auto;html=1;exitX=1;exitY=0.5;exitDx=0;exitDy=0;entryX=0;entryY=0.5;entryDx=0;entryDy=0;" parent="1" source="IoRThD0YpW3yYK1RBAOI-286" target="IoRThD0YpW3yYK1RBAOI-288" edge="1">
          <mxGeometry relative="1" as="geometry" />
        </mxCell>
        <mxCell id="IoRThD0YpW3yYK1RBAOI-286" value="Hydrogen Gas" style="rounded=0;whiteSpace=wrap;html=1;" parent="1" vertex="1">
          <mxGeometry x="42" y="4160" width="120" height="60" as="geometry" />
        </mxCell>
        <mxCell id="IoRThD0YpW3yYK1RBAOI-290" style="edgeStyle=orthogonalEdgeStyle;rounded=0;orthogonalLoop=1;jettySize=auto;html=1;exitX=1;exitY=0.5;exitDx=0;exitDy=0;entryX=0;entryY=0.5;entryDx=0;entryDy=0;" parent="1" source="IoRThD0YpW3yYK1RBAOI-287" target="IoRThD0YpW3yYK1RBAOI-288" edge="1">
          <mxGeometry relative="1" as="geometry" />
        </mxCell>
        <mxCell id="IoRThD0YpW3yYK1RBAOI-287" value="Chlorine Gas" style="rounded=0;whiteSpace=wrap;html=1;" parent="1" vertex="1">
          <mxGeometry x="40" y="4240" width="120" height="60" as="geometry" />
        </mxCell>
        <mxCell id="IoRThD0YpW3yYK1RBAOI-291" style="edgeStyle=orthogonalEdgeStyle;rounded=0;orthogonalLoop=1;jettySize=auto;html=1;exitX=1;exitY=0.5;exitDx=0;exitDy=0;entryX=0;entryY=0.5;entryDx=0;entryDy=0;" parent="1" source="IoRThD0YpW3yYK1RBAOI-288" target="IoRThD0YpW3yYK1RBAOI-285" edge="1">
          <mxGeometry relative="1" as="geometry" />
        </mxCell>
        <mxCell id="IoRThD0YpW3yYK1RBAOI-288" value="Chloralkali Electrolysis Cell" style="rounded=1;whiteSpace=wrap;html=1;" parent="1" vertex="1">
          <mxGeometry x="210" y="4200" width="120" height="60" as="geometry" />
        </mxCell>
        <mxCell id="IoRThD0YpW3yYK1RBAOI-292" value="Zeolite" style="rounded=1;whiteSpace=wrap;html=1;" parent="1" vertex="1">
          <mxGeometry x="345.25" y="4419" width="120" height="60" as="geometry" />
        </mxCell>
        <mxCell id="IoRThD0YpW3yYK1RBAOI-295" style="edgeStyle=orthogonalEdgeStyle;rounded=0;orthogonalLoop=1;jettySize=auto;html=1;exitX=1;exitY=0.5;exitDx=0;exitDy=0;entryX=0.5;entryY=0;entryDx=0;entryDy=0;" parent="1" source="IoRThD0YpW3yYK1RBAOI-294" target="IoRThD0YpW3yYK1RBAOI-292" edge="1">
          <mxGeometry relative="1" as="geometry" />
        </mxCell>
        <mxCell id="IoRThD0YpW3yYK1RBAOI-294" value="Clinoptilolite" style="rounded=0;whiteSpace=wrap;html=1;" parent="1" vertex="1">
          <mxGeometry x="186.25" y="4329" width="120" height="60" as="geometry" />
        </mxCell>
        <mxCell id="IoRThD0YpW3yYK1RBAOI-297" style="edgeStyle=orthogonalEdgeStyle;rounded=0;orthogonalLoop=1;jettySize=auto;html=1;exitX=1;exitY=0.5;exitDx=0;exitDy=0;entryX=0;entryY=0.5;entryDx=0;entryDy=0;" parent="1" source="IoRThD0YpW3yYK1RBAOI-296" target="IoRThD0YpW3yYK1RBAOI-292" edge="1">
          <mxGeometry relative="1" as="geometry" />
        </mxCell>
        <mxCell id="IoRThD0YpW3yYK1RBAOI-296" value="Chabazite" style="rounded=0;whiteSpace=wrap;html=1;" parent="1" vertex="1">
          <mxGeometry x="185.25" y="4419" width="120" height="60" as="geometry" />
        </mxCell>
        <mxCell id="IoRThD0YpW3yYK1RBAOI-299" style="edgeStyle=orthogonalEdgeStyle;rounded=0;orthogonalLoop=1;jettySize=auto;html=1;exitX=1;exitY=0.5;exitDx=0;exitDy=0;entryX=0.5;entryY=1;entryDx=0;entryDy=0;" parent="1" source="IoRThD0YpW3yYK1RBAOI-298" target="IoRThD0YpW3yYK1RBAOI-292" edge="1">
          <mxGeometry relative="1" as="geometry" />
        </mxCell>
        <mxCell id="IoRThD0YpW3yYK1RBAOI-298" value="Mordenite" style="rounded=0;whiteSpace=wrap;html=1;" parent="1" vertex="1">
          <mxGeometry x="187.25" y="4509" width="120" height="60" as="geometry" />
        </mxCell>
        <mxCell id="IoRThD0YpW3yYK1RBAOI-300" value="&lt;h1&gt;Smelted&lt;/h1&gt;" style="text;html=1;strokeColor=none;fillColor=none;spacing=5;spacingTop=-20;whiteSpace=wrap;overflow=hidden;rounded=0;" parent="1" vertex="1">
          <mxGeometry x="42" y="4429" width="106.5" height="40" as="geometry" />
        </mxCell>
        <mxCell id="IoRThD0YpW3yYK1RBAOI-301" value="" style="endArrow=none;html=1;rounded=0;entryX=0;entryY=0.5;entryDx=0;entryDy=0;exitX=0;exitY=0.5;exitDx=0;exitDy=0;" parent="1" source="IoRThD0YpW3yYK1RBAOI-298" target="IoRThD0YpW3yYK1RBAOI-294" edge="1">
          <mxGeometry width="50" height="50" relative="1" as="geometry">
            <mxPoint x="175.25" y="4369" as="sourcePoint" />
            <mxPoint x="225.25" y="4319" as="targetPoint" />
            <Array as="points">
              <mxPoint x="145.25" y="4449" />
            </Array>
          </mxGeometry>
        </mxCell>
        <mxCell id="IoRThD0YpW3yYK1RBAOI-302" value="" style="endArrow=none;html=1;rounded=0;exitX=0;exitY=0.5;exitDx=0;exitDy=0;" parent="1" source="IoRThD0YpW3yYK1RBAOI-296" edge="1">
          <mxGeometry width="50" height="50" relative="1" as="geometry">
            <mxPoint x="175.25" y="4369" as="sourcePoint" />
            <mxPoint x="145.25" y="4449" as="targetPoint" />
          </mxGeometry>
        </mxCell>
        <mxCell id="IoRThD0YpW3yYK1RBAOI-304" value="Monoethanolamine" style="rounded=1;whiteSpace=wrap;html=1;" parent="1" vertex="1">
          <mxGeometry x="667" y="4690" width="120" height="60" as="geometry" />
        </mxCell>
        <mxCell id="IoRThD0YpW3yYK1RBAOI-308" style="edgeStyle=orthogonalEdgeStyle;rounded=0;orthogonalLoop=1;jettySize=auto;html=1;exitX=1;exitY=0.5;exitDx=0;exitDy=0;entryX=0;entryY=0.5;entryDx=0;entryDy=0;" parent="1" source="IoRThD0YpW3yYK1RBAOI-305" target="IoRThD0YpW3yYK1RBAOI-306" edge="1">
          <mxGeometry relative="1" as="geometry" />
        </mxCell>
        <mxCell id="IoRThD0YpW3yYK1RBAOI-305" value="Impure Monoethanolamine" style="rounded=1;whiteSpace=wrap;html=1;" parent="1" vertex="1">
          <mxGeometry x="362" y="4690" width="120" height="60" as="geometry" />
        </mxCell>
        <mxCell id="IoRThD0YpW3yYK1RBAOI-307" style="edgeStyle=orthogonalEdgeStyle;rounded=0;orthogonalLoop=1;jettySize=auto;html=1;exitX=1;exitY=0.5;exitDx=0;exitDy=0;entryX=0;entryY=0.5;entryDx=0;entryDy=0;" parent="1" source="IoRThD0YpW3yYK1RBAOI-306" target="IoRThD0YpW3yYK1RBAOI-304" edge="1">
          <mxGeometry relative="1" as="geometry" />
        </mxCell>
        <mxCell id="IoRThD0YpW3yYK1RBAOI-306" value="Purification Chamber" style="rounded=1;whiteSpace=wrap;html=1;" parent="1" vertex="1">
          <mxGeometry x="514.75" y="4690" width="120" height="60" as="geometry" />
        </mxCell>
        <mxCell id="IoRThD0YpW3yYK1RBAOI-325" style="edgeStyle=orthogonalEdgeStyle;rounded=0;orthogonalLoop=1;jettySize=auto;html=1;exitX=1;exitY=0.5;exitDx=0;exitDy=0;entryX=0;entryY=0.5;entryDx=0;entryDy=0;" parent="1" source="IoRThD0YpW3yYK1RBAOI-309" target="IoRThD0YpW3yYK1RBAOI-305" edge="1">
          <mxGeometry relative="1" as="geometry" />
        </mxCell>
        <mxCell id="IoRThD0YpW3yYK1RBAOI-309" value="Agitator" style="rounded=1;whiteSpace=wrap;html=1;" parent="1" vertex="1">
          <mxGeometry x="212" y="4690" width="120" height="60" as="geometry" />
        </mxCell>
        <mxCell id="IoRThD0YpW3yYK1RBAOI-314" style="edgeStyle=orthogonalEdgeStyle;rounded=0;orthogonalLoop=1;jettySize=auto;html=1;exitX=1;exitY=0.5;exitDx=0;exitDy=0;entryX=0;entryY=0.5;entryDx=0;entryDy=0;" parent="1" source="IoRThD0YpW3yYK1RBAOI-310" target="IoRThD0YpW3yYK1RBAOI-309" edge="1">
          <mxGeometry relative="1" as="geometry" />
        </mxCell>
        <mxCell id="IoRThD0YpW3yYK1RBAOI-310" value="Ethylene Oxide" style="rounded=1;whiteSpace=wrap;html=1;" parent="1" vertex="1">
          <mxGeometry x="42" y="4600" width="120" height="60" as="geometry" />
        </mxCell>
        <mxCell id="IoRThD0YpW3yYK1RBAOI-315" style="edgeStyle=orthogonalEdgeStyle;rounded=0;orthogonalLoop=1;jettySize=auto;html=1;exitX=1;exitY=0.5;exitDx=0;exitDy=0;entryX=0;entryY=0.5;entryDx=0;entryDy=0;" parent="1" source="IoRThD0YpW3yYK1RBAOI-311" target="IoRThD0YpW3yYK1RBAOI-309" edge="1">
          <mxGeometry relative="1" as="geometry" />
        </mxCell>
        <mxCell id="IoRThD0YpW3yYK1RBAOI-311" value="Ammonia" style="rounded=1;whiteSpace=wrap;html=1;" parent="1" vertex="1">
          <mxGeometry x="42" y="4690" width="120" height="60" as="geometry" />
        </mxCell>
        <mxCell id="IoRThD0YpW3yYK1RBAOI-313" style="edgeStyle=orthogonalEdgeStyle;rounded=0;orthogonalLoop=1;jettySize=auto;html=1;exitX=1;exitY=0.5;exitDx=0;exitDy=0;entryX=0;entryY=0.5;entryDx=0;entryDy=0;" parent="1" source="IoRThD0YpW3yYK1RBAOI-312" target="IoRThD0YpW3yYK1RBAOI-309" edge="1">
          <mxGeometry relative="1" as="geometry" />
        </mxCell>
        <mxCell id="IoRThD0YpW3yYK1RBAOI-312" value="Water" style="rounded=0;whiteSpace=wrap;html=1;" parent="1" vertex="1">
          <mxGeometry x="42" y="4780" width="120" height="60" as="geometry" />
        </mxCell>
        <mxCell id="IoRThD0YpW3yYK1RBAOI-316" value="Ethylene Oxide" style="rounded=1;whiteSpace=wrap;html=1;" parent="1" vertex="1">
          <mxGeometry x="218.5" y="4940" width="120" height="60" as="geometry" />
        </mxCell>
        <mxCell id="IoRThD0YpW3yYK1RBAOI-320" style="edgeStyle=orthogonalEdgeStyle;rounded=0;orthogonalLoop=1;jettySize=auto;html=1;exitX=1;exitY=0.5;exitDx=0;exitDy=0;entryX=0;entryY=0.5;entryDx=0;entryDy=0;" parent="1" source="IoRThD0YpW3yYK1RBAOI-317" target="IoRThD0YpW3yYK1RBAOI-316" edge="1">
          <mxGeometry relative="1" as="geometry" />
        </mxCell>
        <mxCell id="IoRThD0YpW3yYK1RBAOI-317" value="Ethylene" style="rounded=1;whiteSpace=wrap;html=1;" parent="1" vertex="1">
          <mxGeometry x="51.5" y="4880" width="120" height="60" as="geometry" />
        </mxCell>
        <mxCell id="IoRThD0YpW3yYK1RBAOI-319" style="edgeStyle=orthogonalEdgeStyle;rounded=0;orthogonalLoop=1;jettySize=auto;html=1;exitX=1;exitY=0.5;exitDx=0;exitDy=0;entryX=0;entryY=0.5;entryDx=0;entryDy=0;" parent="1" source="IoRThD0YpW3yYK1RBAOI-318" target="IoRThD0YpW3yYK1RBAOI-316" edge="1">
          <mxGeometry relative="1" as="geometry" />
        </mxCell>
        <mxCell id="IoRThD0YpW3yYK1RBAOI-318" value="Oxygen" style="rounded=0;whiteSpace=wrap;html=1;" parent="1" vertex="1">
          <mxGeometry x="51.5" y="5000" width="120" height="60" as="geometry" />
        </mxCell>
        <mxCell id="IoRThD0YpW3yYK1RBAOI-321" value="Silver or Platinum Catalyst" style="text;html=1;strokeColor=none;fillColor=none;align=center;verticalAlign=middle;whiteSpace=wrap;rounded=0;" parent="1" vertex="1">
          <mxGeometry x="40" y="4955" width="150" height="30" as="geometry" />
        </mxCell>
        <mxCell id="IoRThD0YpW3yYK1RBAOI-322" value="Ethylene" style="rounded=1;whiteSpace=wrap;html=1;" parent="1" vertex="1">
          <mxGeometry x="391" y="5120" width="120" height="60" as="geometry" />
        </mxCell>
        <mxCell id="IoRThD0YpW3yYK1RBAOI-324" style="edgeStyle=orthogonalEdgeStyle;rounded=0;orthogonalLoop=1;jettySize=auto;html=1;exitX=1;exitY=0.5;exitDx=0;exitDy=0;entryX=0;entryY=0.5;entryDx=0;entryDy=0;" parent="1" source="IoRThD0YpW3yYK1RBAOI-323" target="IoRThD0YpW3yYK1RBAOI-322" edge="1">
          <mxGeometry relative="1" as="geometry" />
        </mxCell>
        <mxCell id="IoRThD0YpW3yYK1RBAOI-323" value="Steam Cracking of Ethane (produced from natural gas)" style="rounded=1;whiteSpace=wrap;html=1;" parent="1" vertex="1">
          <mxGeometry x="41" y="5120" width="310" height="60" as="geometry" />
        </mxCell>
        <mxCell id="IoRThD0YpW3yYK1RBAOI-326" value="Sulfuric Acid" style="rounded=1;whiteSpace=wrap;html=1;" parent="1" vertex="1">
          <mxGeometry x="399.25" y="5350" width="120" height="60" as="geometry" />
        </mxCell>
        <mxCell id="IoRThD0YpW3yYK1RBAOI-328" style="edgeStyle=orthogonalEdgeStyle;rounded=0;orthogonalLoop=1;jettySize=auto;html=1;exitX=1;exitY=0.5;exitDx=0;exitDy=0;entryX=0;entryY=0.5;entryDx=0;entryDy=0;" parent="1" source="IoRThD0YpW3yYK1RBAOI-327" target="IoRThD0YpW3yYK1RBAOI-326" edge="1">
          <mxGeometry relative="1" as="geometry" />
        </mxCell>
        <mxCell id="IoRThD0YpW3yYK1RBAOI-327" value="Sulfur Trioxide" style="rounded=1;whiteSpace=wrap;html=1;" parent="1" vertex="1">
          <mxGeometry x="236.25" y="5310" width="120" height="60" as="geometry" />
        </mxCell>
        <mxCell id="IoRThD0YpW3yYK1RBAOI-330" style="edgeStyle=orthogonalEdgeStyle;rounded=0;orthogonalLoop=1;jettySize=auto;html=1;exitX=1;exitY=0.5;exitDx=0;exitDy=0;entryX=0;entryY=0.5;entryDx=0;entryDy=0;" parent="1" source="IoRThD0YpW3yYK1RBAOI-329" target="IoRThD0YpW3yYK1RBAOI-326" edge="1">
          <mxGeometry relative="1" as="geometry" />
        </mxCell>
        <mxCell id="IoRThD0YpW3yYK1RBAOI-329" value="Water" style="rounded=0;whiteSpace=wrap;html=1;" parent="1" vertex="1">
          <mxGeometry x="241.12" y="5390" width="114.25" height="60" as="geometry" />
        </mxCell>
        <mxCell id="IoRThD0YpW3yYK1RBAOI-333" style="edgeStyle=orthogonalEdgeStyle;rounded=0;orthogonalLoop=1;jettySize=auto;html=1;exitX=1;exitY=0.5;exitDx=0;exitDy=0;entryX=0;entryY=0.5;entryDx=0;entryDy=0;" parent="1" source="IoRThD0YpW3yYK1RBAOI-331" target="IoRThD0YpW3yYK1RBAOI-327" edge="1">
          <mxGeometry relative="1" as="geometry" />
        </mxCell>
        <mxCell id="IoRThD0YpW3yYK1RBAOI-331" value="Sulfur Dioxide" style="rounded=1;whiteSpace=wrap;html=1;" parent="1" vertex="1">
          <mxGeometry x="41" y="5275.5" width="120" height="60" as="geometry" />
        </mxCell>
        <mxCell id="IoRThD0YpW3yYK1RBAOI-336" style="edgeStyle=orthogonalEdgeStyle;rounded=0;orthogonalLoop=1;jettySize=auto;html=1;exitX=1;exitY=0.5;exitDx=0;exitDy=0;entryX=0;entryY=0.5;entryDx=0;entryDy=0;" parent="1" source="IoRThD0YpW3yYK1RBAOI-332" target="IoRThD0YpW3yYK1RBAOI-327" edge="1">
          <mxGeometry relative="1" as="geometry" />
        </mxCell>
        <mxCell id="IoRThD0YpW3yYK1RBAOI-332" value="Oxygen" style="rounded=0;whiteSpace=wrap;html=1;" parent="1" vertex="1">
          <mxGeometry x="49" y="5344.5" width="108" height="60" as="geometry" />
        </mxCell>
        <mxCell id="IoRThD0YpW3yYK1RBAOI-337" value="Platinum or Vanadium Pentoxide Catalyst" style="text;html=1;strokeColor=none;fillColor=none;align=center;verticalAlign=middle;whiteSpace=wrap;rounded=0;" parent="1" vertex="1">
          <mxGeometry x="140.25" y="5240" width="138" height="30" as="geometry" />
        </mxCell>
        <mxCell id="IoRThD0YpW3yYK1RBAOI-338" value="Sulfur Dioxide" style="rounded=1;whiteSpace=wrap;html=1;" parent="1" vertex="1">
          <mxGeometry x="171.5" y="5530" width="120" height="60" as="geometry" />
        </mxCell>
        <mxCell id="IoRThD0YpW3yYK1RBAOI-342" style="edgeStyle=orthogonalEdgeStyle;rounded=0;orthogonalLoop=1;jettySize=auto;html=1;exitX=1;exitY=0.5;exitDx=0;exitDy=0;entryX=0.5;entryY=0;entryDx=0;entryDy=0;" parent="1" source="IoRThD0YpW3yYK1RBAOI-339" target="IoRThD0YpW3yYK1RBAOI-338" edge="1">
          <mxGeometry relative="1" as="geometry" />
        </mxCell>
        <mxCell id="IoRThD0YpW3yYK1RBAOI-339" value="Burning Fossil Fuels" style="rounded=1;whiteSpace=wrap;html=1;" parent="1" vertex="1">
          <mxGeometry x="37.24000000000001" y="5480" width="120" height="60" as="geometry" />
        </mxCell>
        <mxCell id="IoRThD0YpW3yYK1RBAOI-341" style="edgeStyle=orthogonalEdgeStyle;rounded=0;orthogonalLoop=1;jettySize=auto;html=1;exitX=1;exitY=0.5;exitDx=0;exitDy=0;entryX=0.5;entryY=1;entryDx=0;entryDy=0;" parent="1" source="IoRThD0YpW3yYK1RBAOI-340" target="IoRThD0YpW3yYK1RBAOI-338" edge="1">
          <mxGeometry relative="1" as="geometry" />
        </mxCell>
        <mxCell id="IoRThD0YpW3yYK1RBAOI-340" value="Smelting of Sulfide Ores" style="rounded=1;whiteSpace=wrap;html=1;" parent="1" vertex="1">
          <mxGeometry x="39" y="5580" width="120" height="60" as="geometry" />
        </mxCell>
        <mxCell id="IoRThD0YpW3yYK1RBAOI-343" value="Vanadium Pentoxide" style="rounded=1;whiteSpace=wrap;html=1;" parent="1" vertex="1">
          <mxGeometry x="671.5" y="5760" width="120" height="60" as="geometry" />
        </mxCell>
        <mxCell id="IoRThD0YpW3yYK1RBAOI-349" style="edgeStyle=orthogonalEdgeStyle;rounded=0;orthogonalLoop=1;jettySize=auto;html=1;exitX=1;exitY=0.5;exitDx=0;exitDy=0;entryX=0;entryY=0.5;entryDx=0;entryDy=0;" parent="1" source="IoRThD0YpW3yYK1RBAOI-345" target="IoRThD0YpW3yYK1RBAOI-346" edge="1">
          <mxGeometry relative="1" as="geometry" />
        </mxCell>
        <mxCell id="IoRThD0YpW3yYK1RBAOI-345" value="Impure Vanadium Pentoxide" style="rounded=0;whiteSpace=wrap;html=1;" parent="1" vertex="1">
          <mxGeometry x="351" y="5760" width="114.25" height="60" as="geometry" />
        </mxCell>
        <mxCell id="IoRThD0YpW3yYK1RBAOI-348" style="edgeStyle=orthogonalEdgeStyle;rounded=0;orthogonalLoop=1;jettySize=auto;html=1;exitX=1;exitY=0.5;exitDx=0;exitDy=0;entryX=0;entryY=0.5;entryDx=0;entryDy=0;" parent="1" source="IoRThD0YpW3yYK1RBAOI-346" target="IoRThD0YpW3yYK1RBAOI-343" edge="1">
          <mxGeometry relative="1" as="geometry" />
        </mxCell>
        <mxCell id="IoRThD0YpW3yYK1RBAOI-346" value="Purification Chamber" style="rounded=1;whiteSpace=wrap;html=1;" parent="1" vertex="1">
          <mxGeometry x="508.5" y="5760" width="120" height="60" as="geometry" />
        </mxCell>
        <mxCell id="IoRThD0YpW3yYK1RBAOI-356" style="edgeStyle=orthogonalEdgeStyle;rounded=0;orthogonalLoop=1;jettySize=auto;html=1;exitX=1;exitY=0.5;exitDx=0;exitDy=0;entryX=0.5;entryY=0;entryDx=0;entryDy=0;" parent="1" source="IoRThD0YpW3yYK1RBAOI-350" target="IoRThD0YpW3yYK1RBAOI-354" edge="1">
          <mxGeometry relative="1" as="geometry" />
        </mxCell>
        <mxCell id="IoRThD0YpW3yYK1RBAOI-350" value="Vanadinite Ore" style="rounded=0;whiteSpace=wrap;html=1;" parent="1" vertex="1">
          <mxGeometry x="41" y="5680" width="114.25" height="60" as="geometry" />
        </mxCell>
        <mxCell id="IoRThD0YpW3yYK1RBAOI-355" style="edgeStyle=orthogonalEdgeStyle;rounded=0;orthogonalLoop=1;jettySize=auto;html=1;exitX=1;exitY=0.5;exitDx=0;exitDy=0;entryX=0;entryY=0.5;entryDx=0;entryDy=0;" parent="1" source="IoRThD0YpW3yYK1RBAOI-351" target="IoRThD0YpW3yYK1RBAOI-354" edge="1">
          <mxGeometry relative="1" as="geometry" />
        </mxCell>
        <mxCell id="IoRThD0YpW3yYK1RBAOI-351" value="Carnotite Ore" style="rounded=0;whiteSpace=wrap;html=1;" parent="1" vertex="1">
          <mxGeometry x="41" y="5760" width="114.25" height="60" as="geometry" />
        </mxCell>
        <mxCell id="IoRThD0YpW3yYK1RBAOI-357" style="edgeStyle=orthogonalEdgeStyle;rounded=0;orthogonalLoop=1;jettySize=auto;html=1;exitX=1;exitY=0.5;exitDx=0;exitDy=0;entryX=0.5;entryY=1;entryDx=0;entryDy=0;" parent="1" source="IoRThD0YpW3yYK1RBAOI-352" target="IoRThD0YpW3yYK1RBAOI-354" edge="1">
          <mxGeometry relative="1" as="geometry" />
        </mxCell>
        <mxCell id="IoRThD0YpW3yYK1RBAOI-352" value="Patronite Ore" style="rounded=0;whiteSpace=wrap;html=1;" parent="1" vertex="1">
          <mxGeometry x="42.75" y="5840" width="114.25" height="60" as="geometry" />
        </mxCell>
        <mxCell id="IoRThD0YpW3yYK1RBAOI-358" style="edgeStyle=orthogonalEdgeStyle;rounded=0;orthogonalLoop=1;jettySize=auto;html=1;exitX=1;exitY=0.5;exitDx=0;exitDy=0;entryX=0;entryY=0.5;entryDx=0;entryDy=0;" parent="1" source="IoRThD0YpW3yYK1RBAOI-354" target="IoRThD0YpW3yYK1RBAOI-345" edge="1">
          <mxGeometry relative="1" as="geometry" />
        </mxCell>
        <mxCell id="IoRThD0YpW3yYK1RBAOI-354" value="Roasted" style="rounded=1;whiteSpace=wrap;html=1;" parent="1" vertex="1">
          <mxGeometry x="194" y="5760" width="120" height="60" as="geometry" />
        </mxCell>
        <mxCell id="PqFkK2XVgemiq2zy29Ep-2" value="TODO" style="text;html=1;strokeColor=none;fillColor=none;align=center;verticalAlign=middle;whiteSpace=wrap;rounded=0;" parent="1" vertex="1">
          <mxGeometry x="345.25" y="995" width="60" height="30" as="geometry" />
        </mxCell>
        <mxCell id="PqFkK2XVgemiq2zy29Ep-3" value="TODO" style="text;html=1;strokeColor=none;fillColor=none;align=center;verticalAlign=middle;whiteSpace=wrap;rounded=0;" parent="1" vertex="1">
          <mxGeometry x="349" y="1195" width="60" height="30" as="geometry" />
        </mxCell>
        <mxCell id="PqFkK2XVgemiq2zy29Ep-4" value="TODO" style="text;html=1;strokeColor=none;fillColor=none;align=center;verticalAlign=middle;whiteSpace=wrap;rounded=0;" parent="1" vertex="1">
          <mxGeometry x="81.5" y="2195" width="60" height="30" as="geometry" />
        </mxCell>
        <mxCell id="PqFkK2XVgemiq2zy29Ep-5" value="TODO" style="text;html=1;strokeColor=none;fillColor=none;align=center;verticalAlign=middle;whiteSpace=wrap;rounded=0;" parent="1" vertex="1">
          <mxGeometry x="820" y="2500" width="60" height="30" as="geometry" />
        </mxCell>
        <mxCell id="PqFkK2XVgemiq2zy29Ep-6" value="TODO" style="text;html=1;strokeColor=none;fillColor=none;align=center;verticalAlign=middle;whiteSpace=wrap;rounded=0;" parent="1" vertex="1">
          <mxGeometry x="680" y="3355" width="60" height="30" as="geometry" />
        </mxCell>
      </root>
    </mxGraphModel>
  </diagram>
</mxfile>
